G75*
G70*
%OFA0B0*%
%FSLAX24Y24*%
%IPPOS*%
%LPD*%
%AMOC8*
5,1,8,0,0,1.08239X$1,22.5*
%
%ADD10C,0.0000*%
%ADD11C,0.0079*%
%ADD12C,0.0040*%
%ADD13R,0.0413X0.0079*%
%ADD14C,0.0256*%
%ADD15C,0.0080*%
%ADD16C,0.0050*%
%ADD17C,0.0010*%
%ADD18C,0.0060*%
%ADD19R,0.0230X0.0160*%
%ADD20C,0.0160*%
%ADD21R,0.0200X0.1000*%
%ADD22R,0.0750X0.0300*%
D10*
X001367Y001717D02*
X001367Y012713D01*
X023737Y012713D01*
X023737Y001717D01*
X001367Y001717D01*
D11*
X014922Y006721D02*
X014922Y009209D01*
D12*
X015757Y008984D02*
X016217Y008984D01*
X016217Y009137D02*
X016217Y008830D01*
X016140Y008677D02*
X015757Y008677D01*
X015910Y008830D02*
X015757Y008984D01*
X016140Y008677D02*
X016217Y008600D01*
X016217Y008446D01*
X016140Y008370D01*
X015757Y008370D01*
X013769Y008762D02*
X013692Y008685D01*
X013538Y008685D01*
X013462Y008762D01*
X013308Y008762D02*
X013232Y008685D01*
X013078Y008685D01*
X013001Y008762D01*
X013001Y009069D01*
X013078Y009146D01*
X013232Y009146D01*
X013308Y009069D01*
X013462Y009069D02*
X013538Y009146D01*
X013692Y009146D01*
X013769Y009069D01*
X013769Y008992D01*
X013692Y008916D01*
X013769Y008839D01*
X013769Y008762D01*
X013692Y008916D02*
X013615Y008916D01*
X013501Y010135D02*
X013501Y010596D01*
X013732Y010596D01*
X013808Y010519D01*
X013808Y010366D01*
X013732Y010289D01*
X013501Y010289D01*
X013655Y010289D02*
X013808Y010135D01*
X013962Y010212D02*
X014038Y010135D01*
X014192Y010135D01*
X014269Y010212D01*
X014269Y010366D01*
X014192Y010442D01*
X014115Y010442D01*
X013962Y010366D01*
X013962Y010596D01*
X014269Y010596D01*
X015222Y010489D02*
X015452Y010489D01*
X015529Y010566D01*
X015529Y010719D01*
X015452Y010796D01*
X015222Y010796D01*
X015222Y010335D01*
X015376Y010489D02*
X015529Y010335D01*
X015682Y010335D02*
X015989Y010642D01*
X015989Y010719D01*
X015913Y010796D01*
X015759Y010796D01*
X015682Y010719D01*
X015682Y010335D02*
X015989Y010335D01*
X018652Y007682D02*
X018652Y007375D01*
X018422Y007605D01*
X018882Y007605D01*
X018882Y007221D02*
X018729Y007068D01*
X018729Y007145D02*
X018729Y006915D01*
X018882Y006915D02*
X018422Y006915D01*
X018422Y007145D01*
X018499Y007221D01*
X018652Y007221D01*
X018729Y007145D01*
X018489Y005746D02*
X018336Y005669D01*
X018182Y005516D01*
X018413Y005516D01*
X018489Y005439D01*
X018489Y005362D01*
X018413Y005285D01*
X018259Y005285D01*
X018182Y005362D01*
X018182Y005516D01*
X018192Y005596D02*
X018269Y005519D01*
X018269Y005442D01*
X018192Y005366D01*
X018269Y005289D01*
X018269Y005212D01*
X018192Y005135D01*
X018038Y005135D01*
X017962Y005212D01*
X017952Y005285D02*
X018029Y005362D01*
X018115Y005366D02*
X018192Y005366D01*
X018192Y005596D02*
X018038Y005596D01*
X017962Y005519D01*
X017808Y005519D02*
X017808Y005366D01*
X017732Y005289D01*
X017501Y005289D01*
X017501Y005135D02*
X017501Y005596D01*
X017732Y005596D01*
X017808Y005519D01*
X017722Y005669D02*
X017722Y005362D01*
X017799Y005285D01*
X017952Y005285D01*
X017808Y005135D02*
X017655Y005289D01*
X017722Y005669D02*
X017799Y005746D01*
X017952Y005746D01*
X018029Y005669D01*
X015188Y005509D02*
X015188Y005432D01*
X015111Y005355D01*
X015188Y005279D01*
X015188Y005202D01*
X015111Y005125D01*
X014958Y005125D01*
X014881Y005202D01*
X014727Y005202D02*
X014651Y005125D01*
X014497Y005125D01*
X014421Y005202D01*
X014421Y005585D01*
X014727Y005585D02*
X014727Y005202D01*
X014881Y005509D02*
X014958Y005585D01*
X015111Y005585D01*
X015188Y005509D01*
X015111Y005355D02*
X015034Y005355D01*
X013232Y004326D02*
X012772Y004326D01*
X013002Y004096D01*
X013002Y004403D01*
X013155Y003942D02*
X013232Y003866D01*
X013232Y003712D01*
X013155Y003635D01*
X012849Y003635D01*
X012772Y003712D01*
X012772Y003866D01*
X012849Y003942D01*
X012232Y004212D02*
X012232Y004366D01*
X012155Y004442D01*
X012155Y004596D02*
X012232Y004672D01*
X012232Y004826D01*
X012155Y004903D01*
X012002Y004903D01*
X011925Y004826D01*
X011925Y004749D01*
X012002Y004596D01*
X011772Y004596D01*
X011772Y004903D01*
X010989Y005335D02*
X010682Y005335D01*
X010529Y005335D02*
X010376Y005489D01*
X010452Y005489D02*
X010222Y005489D01*
X010222Y005335D02*
X010222Y005796D01*
X010452Y005796D01*
X010529Y005719D01*
X010529Y005566D01*
X010452Y005489D01*
X010682Y005642D02*
X010836Y005796D01*
X010836Y005335D01*
X011772Y004366D02*
X011772Y004212D01*
X011849Y004135D01*
X012155Y004135D01*
X012232Y004212D01*
X011849Y004442D02*
X011772Y004366D01*
X011675Y003332D02*
X011599Y003332D01*
X011522Y003255D01*
X011522Y003102D01*
X011599Y003025D01*
X011599Y002871D02*
X011522Y002795D01*
X011522Y002641D01*
X011599Y002565D01*
X011905Y002565D01*
X011982Y002641D01*
X011982Y002795D01*
X011905Y002871D01*
X011982Y003025D02*
X011675Y003332D01*
X011982Y003332D02*
X011982Y003025D01*
X013501Y002069D02*
X013501Y001762D01*
X013578Y001685D01*
X013732Y001685D01*
X013808Y001762D01*
X013962Y001762D02*
X014038Y001685D01*
X014192Y001685D01*
X014269Y001762D01*
X014269Y002069D01*
X014192Y002146D01*
X014038Y002146D01*
X013962Y002069D01*
X013962Y001992D01*
X014038Y001916D01*
X014269Y001916D01*
X013808Y002069D02*
X013732Y002146D01*
X013578Y002146D01*
X013501Y002069D01*
X018372Y002531D02*
X018449Y002454D01*
X018755Y002454D01*
X018832Y002531D01*
X018832Y002684D01*
X018755Y002761D01*
X018832Y002915D02*
X018832Y003221D01*
X018832Y003068D02*
X018372Y003068D01*
X018525Y002915D01*
X018449Y002761D02*
X018372Y002684D01*
X018372Y002531D01*
X018449Y003375D02*
X018372Y003452D01*
X018372Y003605D01*
X018449Y003682D01*
X018755Y003375D01*
X018832Y003452D01*
X018832Y003605D01*
X018755Y003682D01*
X018449Y003682D01*
X018449Y003375D02*
X018755Y003375D01*
X008944Y004625D02*
X008637Y004625D01*
X008944Y004932D01*
X008944Y005009D01*
X008867Y005085D01*
X008714Y005085D01*
X008637Y005009D01*
X008483Y005085D02*
X008483Y004702D01*
X008407Y004625D01*
X008253Y004625D01*
X008176Y004702D01*
X008176Y005085D01*
X007765Y001996D02*
X007765Y001535D01*
X007612Y001535D02*
X007919Y001535D01*
X007612Y001842D02*
X007765Y001996D01*
X007458Y001919D02*
X007382Y001996D01*
X007228Y001996D01*
X007151Y001919D01*
X007151Y001612D01*
X007228Y001535D01*
X007382Y001535D01*
X007458Y001612D01*
X007599Y010065D02*
X007905Y010065D01*
X007982Y010141D01*
X007982Y010295D01*
X007905Y010371D01*
X007905Y010525D02*
X007982Y010525D01*
X007905Y010525D02*
X007599Y010832D01*
X007522Y010832D01*
X007522Y010525D01*
X007599Y010371D02*
X007522Y010295D01*
X007522Y010141D01*
X007599Y010065D01*
X005982Y010141D02*
X005982Y010295D01*
X005905Y010371D01*
X005905Y010525D02*
X005829Y010525D01*
X005752Y010602D01*
X005752Y010755D01*
X005829Y010832D01*
X005905Y010832D01*
X005982Y010755D01*
X005982Y010602D01*
X005905Y010525D01*
X005752Y010602D02*
X005675Y010525D01*
X005599Y010525D01*
X005522Y010602D01*
X005522Y010755D01*
X005599Y010832D01*
X005675Y010832D01*
X005752Y010755D01*
X005599Y010371D02*
X005522Y010295D01*
X005522Y010141D01*
X005599Y010065D01*
X005905Y010065D01*
X005982Y010141D01*
X010922Y010915D02*
X010922Y011145D01*
X010999Y011221D01*
X011152Y011221D01*
X011229Y011145D01*
X011229Y010915D01*
X011229Y011068D02*
X011382Y011221D01*
X011305Y011375D02*
X011382Y011452D01*
X011382Y011605D01*
X011305Y011682D01*
X011229Y011682D01*
X011152Y011605D01*
X011152Y011375D01*
X011305Y011375D01*
X011152Y011375D02*
X010999Y011528D01*
X010922Y011682D01*
X010922Y010915D02*
X011382Y010915D01*
D13*
X014479Y009127D03*
X014479Y008871D03*
X014479Y008615D03*
X014479Y008359D03*
X014479Y008103D03*
X014479Y007847D03*
X014479Y007591D03*
X014479Y007335D03*
X014479Y007080D03*
X014479Y006824D03*
X016625Y006804D03*
X016625Y007060D03*
X016625Y007316D03*
X016625Y007572D03*
X016625Y007828D03*
X016625Y008083D03*
X016625Y008339D03*
X016625Y008595D03*
X016625Y008851D03*
X016625Y009107D03*
D14*
X014912Y004721D03*
X014912Y004721D03*
D15*
X014706Y005017D02*
X014706Y002906D01*
X016399Y002906D01*
X016399Y005017D01*
X014706Y005017D01*
X009899Y004546D02*
X009899Y003385D01*
X008206Y003385D01*
X008206Y004546D01*
X009899Y004546D01*
X008412Y004221D02*
X008414Y004244D01*
X008420Y004266D01*
X008430Y004287D01*
X008444Y004305D01*
X008460Y004321D01*
X008479Y004334D01*
X008500Y004343D01*
X008523Y004348D01*
X008546Y004349D01*
X008568Y004346D01*
X008590Y004339D01*
X008611Y004328D01*
X008628Y004314D01*
X008644Y004296D01*
X008655Y004277D01*
X008663Y004255D01*
X008667Y004232D01*
X008667Y004210D01*
X008663Y004187D01*
X008655Y004165D01*
X008644Y004146D01*
X008628Y004128D01*
X008611Y004114D01*
X008590Y004103D01*
X008568Y004096D01*
X008546Y004093D01*
X008523Y004094D01*
X008500Y004099D01*
X008479Y004108D01*
X008460Y004121D01*
X008444Y004137D01*
X008430Y004155D01*
X008420Y004176D01*
X008414Y004198D01*
X008412Y004221D01*
X023552Y005215D02*
X023552Y006715D01*
D16*
X023827Y006651D02*
X023827Y006200D01*
X024127Y006200D01*
X024287Y006200D02*
X024588Y006200D01*
X024748Y006200D02*
X024973Y006200D01*
X025048Y006275D01*
X025048Y006576D01*
X024973Y006651D01*
X024748Y006651D01*
X024748Y006200D01*
X024438Y006426D02*
X024287Y006426D01*
X024287Y006651D02*
X024287Y006200D01*
X024287Y006651D02*
X024588Y006651D01*
X025208Y006501D02*
X025358Y006651D01*
X025358Y006200D01*
X025208Y006200D02*
X025508Y006200D01*
X021898Y004516D02*
X021898Y004441D01*
X021823Y004366D01*
X021898Y004290D01*
X021898Y004215D01*
X021823Y004140D01*
X021673Y004140D01*
X021598Y004215D01*
X021748Y004366D02*
X021823Y004366D01*
X021898Y004516D02*
X021823Y004591D01*
X021673Y004591D01*
X021598Y004516D01*
X021438Y004516D02*
X021438Y004366D01*
X021363Y004290D01*
X021137Y004290D01*
X021137Y004140D02*
X021137Y004591D01*
X021363Y004591D01*
X021438Y004516D01*
X020977Y004591D02*
X020827Y004591D01*
X020902Y004591D02*
X020902Y004215D01*
X020827Y004140D01*
X020752Y004140D01*
X020677Y004215D01*
X021191Y002781D02*
X021191Y002440D01*
X021304Y002440D02*
X021077Y002440D01*
X021077Y002667D02*
X021191Y002781D01*
X022077Y002724D02*
X022134Y002781D01*
X022247Y002781D01*
X022304Y002724D01*
X022304Y002667D01*
X022077Y002440D01*
X022304Y002440D01*
X023077Y002497D02*
X023134Y002440D01*
X023247Y002440D01*
X023304Y002497D01*
X023304Y002554D01*
X023247Y002610D01*
X023191Y002610D01*
X023247Y002610D02*
X023304Y002667D01*
X023304Y002724D01*
X023247Y002781D01*
X023134Y002781D01*
X023077Y002724D01*
X012617Y006940D02*
X012317Y006940D01*
X012467Y006940D02*
X012467Y007391D01*
X012317Y007241D01*
X012157Y007316D02*
X012082Y007391D01*
X011931Y007391D01*
X011856Y007316D01*
X011856Y007015D01*
X011931Y006940D01*
X012082Y006940D01*
X012157Y007015D01*
X012157Y007316D01*
X012006Y007090D02*
X012157Y006940D01*
X009677Y007070D02*
X009227Y007070D01*
X009227Y007295D01*
X009302Y007370D01*
X009452Y007370D01*
X009527Y007295D01*
X009527Y007070D01*
X009227Y006909D02*
X009227Y006759D01*
X009227Y006834D02*
X009602Y006834D01*
X009677Y006759D01*
X009677Y006684D01*
X009602Y006609D01*
X009677Y007530D02*
X009677Y007830D01*
X009677Y007680D02*
X009227Y007680D01*
X009377Y007530D01*
X008402Y010141D02*
X008402Y011790D01*
X009002Y011518D02*
X009002Y011413D01*
X010277Y011370D02*
X010277Y011070D01*
X010277Y011220D02*
X010727Y011220D01*
X010727Y011530D02*
X010727Y011830D01*
X010727Y011680D02*
X010277Y011680D01*
X010427Y011530D01*
X011402Y011790D02*
X011402Y010141D01*
X012002Y010413D02*
X012002Y010518D01*
X013277Y011070D02*
X013277Y011370D01*
X013352Y011530D02*
X013277Y011605D01*
X013277Y011755D01*
X013352Y011830D01*
X013427Y011830D01*
X013727Y011530D01*
X013727Y011830D01*
X013727Y011220D02*
X013277Y011220D01*
X012002Y011413D02*
X012002Y011518D01*
X009002Y010518D02*
X009002Y010413D01*
X004538Y008640D02*
X004237Y008640D01*
X004388Y008640D02*
X004388Y009091D01*
X004237Y008941D01*
X004077Y009016D02*
X004002Y009091D01*
X003777Y009091D01*
X003777Y008640D01*
X004002Y008640D01*
X004077Y008715D01*
X004077Y009016D01*
X001877Y010065D02*
X001877Y010140D01*
X001802Y010216D01*
X001427Y010216D01*
X001427Y010291D02*
X001427Y010140D01*
X001802Y009990D02*
X001877Y010065D01*
X001877Y010451D02*
X001427Y010451D01*
X001427Y010676D01*
X001502Y010751D01*
X001652Y010751D01*
X001727Y010676D01*
X001727Y010451D01*
X001877Y010911D02*
X001577Y011211D01*
X001502Y011211D01*
X001427Y011136D01*
X001427Y010986D01*
X001502Y010911D01*
X001877Y010911D02*
X001877Y011211D01*
X003777Y007091D02*
X004002Y007091D01*
X004077Y007016D01*
X004077Y006715D01*
X004002Y006640D01*
X003777Y006640D01*
X003777Y007091D01*
X004237Y007016D02*
X004313Y007091D01*
X004463Y007091D01*
X004538Y007016D01*
X004538Y006941D01*
X004237Y006640D01*
X004538Y006640D01*
X004456Y003791D02*
X004682Y003791D01*
X004757Y003716D01*
X004757Y003415D01*
X004682Y003340D01*
X004456Y003340D01*
X004456Y003791D01*
X004917Y003716D02*
X004992Y003791D01*
X005142Y003791D01*
X005217Y003716D01*
X005217Y003641D01*
X005142Y003566D01*
X005217Y003490D01*
X005217Y003415D01*
X005142Y003340D01*
X004992Y003340D01*
X004917Y003415D01*
X005067Y003566D02*
X005142Y003566D01*
X001877Y003136D02*
X001427Y003136D01*
X001652Y002911D01*
X001652Y003211D01*
X001652Y002751D02*
X001502Y002751D01*
X001427Y002676D01*
X001427Y002451D01*
X001877Y002451D01*
X001727Y002451D02*
X001727Y002676D01*
X001652Y002751D01*
X001427Y002291D02*
X001427Y002140D01*
X001427Y002216D02*
X001802Y002216D01*
X001877Y002140D01*
X001877Y002065D01*
X001802Y001990D01*
X016877Y008840D02*
X017177Y008840D01*
X017027Y008840D02*
X017027Y009291D01*
X016877Y009141D01*
X016802Y011640D02*
X016652Y011640D01*
X016577Y011715D01*
X016652Y011866D02*
X016577Y011941D01*
X016577Y012016D01*
X016652Y012091D01*
X016802Y012091D01*
X016877Y012016D01*
X016802Y011866D02*
X016877Y011790D01*
X016877Y011715D01*
X016802Y011640D01*
X017037Y011790D02*
X017188Y011640D01*
X017338Y011790D01*
X017338Y012091D01*
X017037Y012091D02*
X017037Y011790D01*
X016802Y011866D02*
X016652Y011866D01*
X017498Y011941D02*
X017648Y012091D01*
X017648Y011640D01*
X017498Y011640D02*
X017798Y011640D01*
X022627Y011640D02*
X022927Y011640D01*
X022777Y011640D02*
X022777Y012091D01*
X022627Y011941D01*
X023087Y011866D02*
X023313Y012091D01*
X023313Y011640D01*
X023388Y011866D02*
X023087Y011866D01*
D17*
X023584Y006745D02*
X023512Y006691D01*
X023513Y006692D02*
X023458Y006760D01*
X023398Y006823D01*
X023334Y006882D01*
X023266Y006936D01*
X023194Y006985D01*
X023118Y007029D01*
X023040Y007067D01*
X022959Y007099D01*
X022876Y007126D01*
X022792Y007146D01*
X022706Y007160D01*
X022619Y007168D01*
X022532Y007170D01*
X022445Y007165D01*
X022359Y007154D01*
X022273Y007137D01*
X022189Y007114D01*
X022107Y007085D01*
X022028Y007050D01*
X021951Y007009D01*
X021877Y006963D01*
X021806Y006912D01*
X021740Y006855D01*
X021678Y006794D01*
X021620Y006729D01*
X021567Y006660D01*
X021520Y006587D01*
X021478Y006511D01*
X021441Y006432D01*
X021410Y006350D01*
X021385Y006267D01*
X021367Y006182D01*
X021354Y006095D01*
X021348Y006009D01*
X021348Y005921D01*
X021354Y005835D01*
X021367Y005748D01*
X021385Y005663D01*
X021410Y005580D01*
X021441Y005498D01*
X021478Y005419D01*
X021520Y005343D01*
X021567Y005270D01*
X021620Y005201D01*
X021678Y005136D01*
X021740Y005075D01*
X021806Y005018D01*
X021877Y004967D01*
X021951Y004921D01*
X022028Y004880D01*
X022107Y004845D01*
X022189Y004816D01*
X022273Y004793D01*
X022359Y004776D01*
X022445Y004765D01*
X022532Y004760D01*
X022619Y004762D01*
X022706Y004770D01*
X022792Y004784D01*
X022876Y004804D01*
X022959Y004831D01*
X023040Y004863D01*
X023118Y004901D01*
X023194Y004945D01*
X023266Y004994D01*
X023334Y005048D01*
X023398Y005107D01*
X023458Y005170D01*
X023513Y005238D01*
X023584Y005185D01*
X023585Y005184D01*
X023526Y005111D01*
X023462Y005043D01*
X023393Y004980D01*
X023319Y004922D01*
X023242Y004869D01*
X023161Y004822D01*
X023077Y004781D01*
X022990Y004746D01*
X022901Y004718D01*
X022810Y004696D01*
X022718Y004681D01*
X022624Y004672D01*
X022531Y004670D01*
X022437Y004675D01*
X022344Y004687D01*
X022253Y004705D01*
X022162Y004730D01*
X022074Y004761D01*
X021988Y004799D01*
X021906Y004843D01*
X021826Y004892D01*
X021751Y004948D01*
X021679Y005008D01*
X021613Y005074D01*
X021551Y005144D01*
X021494Y005218D01*
X021443Y005297D01*
X021397Y005379D01*
X021358Y005464D01*
X021325Y005551D01*
X021298Y005641D01*
X021278Y005732D01*
X021265Y005825D01*
X021258Y005918D01*
X021258Y006012D01*
X021265Y006105D01*
X021278Y006198D01*
X021298Y006289D01*
X021325Y006379D01*
X021358Y006466D01*
X021397Y006551D01*
X021443Y006633D01*
X021494Y006712D01*
X021551Y006786D01*
X021613Y006856D01*
X021679Y006922D01*
X021751Y006982D01*
X021826Y007038D01*
X021906Y007087D01*
X021988Y007131D01*
X022074Y007169D01*
X022162Y007200D01*
X022253Y007225D01*
X022344Y007243D01*
X022437Y007255D01*
X022531Y007260D01*
X022624Y007258D01*
X022718Y007249D01*
X022810Y007234D01*
X022901Y007212D01*
X022990Y007184D01*
X023077Y007149D01*
X023161Y007108D01*
X023242Y007061D01*
X023319Y007008D01*
X023393Y006950D01*
X023462Y006887D01*
X023526Y006819D01*
X023585Y006746D01*
X023578Y006741D01*
X023519Y006813D01*
X023455Y006880D01*
X023387Y006943D01*
X023314Y007001D01*
X023237Y007053D01*
X023157Y007100D01*
X023073Y007141D01*
X022987Y007175D01*
X022898Y007203D01*
X022808Y007225D01*
X022716Y007240D01*
X022624Y007249D01*
X022531Y007251D01*
X022438Y007246D01*
X022346Y007234D01*
X022255Y007216D01*
X022165Y007191D01*
X022077Y007160D01*
X021992Y007123D01*
X021910Y007079D01*
X021831Y007030D01*
X021756Y006975D01*
X021685Y006915D01*
X021619Y006850D01*
X021558Y006780D01*
X021501Y006706D01*
X021450Y006629D01*
X021405Y006547D01*
X021366Y006463D01*
X021333Y006376D01*
X021307Y006287D01*
X021287Y006196D01*
X021274Y006104D01*
X021267Y006011D01*
X021267Y005919D01*
X021274Y005826D01*
X021287Y005734D01*
X021307Y005643D01*
X021333Y005554D01*
X021366Y005467D01*
X021405Y005383D01*
X021450Y005301D01*
X021501Y005224D01*
X021558Y005150D01*
X021619Y005080D01*
X021685Y005015D01*
X021756Y004955D01*
X021831Y004900D01*
X021910Y004851D01*
X021992Y004807D01*
X022077Y004770D01*
X022165Y004739D01*
X022255Y004714D01*
X022346Y004696D01*
X022438Y004684D01*
X022531Y004679D01*
X022624Y004681D01*
X022716Y004690D01*
X022808Y004705D01*
X022898Y004727D01*
X022987Y004755D01*
X023073Y004789D01*
X023157Y004830D01*
X023237Y004877D01*
X023314Y004929D01*
X023387Y004987D01*
X023455Y005050D01*
X023519Y005117D01*
X023578Y005189D01*
X023571Y005195D01*
X023512Y005123D01*
X023449Y005056D01*
X023381Y004994D01*
X023309Y004936D01*
X023232Y004884D01*
X023153Y004838D01*
X023070Y004798D01*
X022984Y004763D01*
X022896Y004735D01*
X022806Y004714D01*
X022715Y004698D01*
X022623Y004690D01*
X022531Y004688D01*
X022439Y004693D01*
X022347Y004705D01*
X022257Y004723D01*
X022168Y004747D01*
X022081Y004778D01*
X021996Y004815D01*
X021915Y004858D01*
X021836Y004907D01*
X021762Y004962D01*
X021691Y005021D01*
X021626Y005086D01*
X021565Y005155D01*
X021509Y005229D01*
X021458Y005306D01*
X021413Y005387D01*
X021375Y005471D01*
X021342Y005557D01*
X021316Y005645D01*
X021296Y005735D01*
X021283Y005827D01*
X021276Y005919D01*
X021276Y006011D01*
X021283Y006103D01*
X021296Y006195D01*
X021316Y006285D01*
X021342Y006373D01*
X021375Y006459D01*
X021413Y006543D01*
X021458Y006624D01*
X021509Y006701D01*
X021565Y006775D01*
X021626Y006844D01*
X021691Y006909D01*
X021762Y006968D01*
X021836Y007023D01*
X021915Y007072D01*
X021996Y007115D01*
X022081Y007152D01*
X022168Y007183D01*
X022257Y007207D01*
X022347Y007225D01*
X022439Y007237D01*
X022531Y007242D01*
X022623Y007240D01*
X022715Y007232D01*
X022806Y007216D01*
X022896Y007195D01*
X022984Y007167D01*
X023070Y007132D01*
X023153Y007092D01*
X023232Y007046D01*
X023309Y006994D01*
X023381Y006936D01*
X023449Y006874D01*
X023512Y006807D01*
X023571Y006735D01*
X023563Y006730D01*
X023506Y006801D01*
X023443Y006868D01*
X023375Y006930D01*
X023303Y006986D01*
X023228Y007038D01*
X023148Y007084D01*
X023066Y007124D01*
X022981Y007158D01*
X022894Y007186D01*
X022804Y007208D01*
X022714Y007223D01*
X022623Y007231D01*
X022531Y007233D01*
X022440Y007228D01*
X022349Y007217D01*
X022259Y007199D01*
X022170Y007174D01*
X022084Y007144D01*
X022000Y007107D01*
X021919Y007064D01*
X021841Y007015D01*
X021767Y006961D01*
X021698Y006902D01*
X021632Y006838D01*
X021571Y006769D01*
X021516Y006696D01*
X021466Y006619D01*
X021421Y006539D01*
X021383Y006456D01*
X021351Y006370D01*
X021324Y006282D01*
X021305Y006193D01*
X021291Y006102D01*
X021285Y006011D01*
X021285Y005919D01*
X021291Y005828D01*
X021305Y005737D01*
X021324Y005648D01*
X021351Y005560D01*
X021383Y005474D01*
X021421Y005391D01*
X021466Y005311D01*
X021516Y005234D01*
X021571Y005161D01*
X021632Y005092D01*
X021698Y005028D01*
X021767Y004969D01*
X021841Y004915D01*
X021919Y004866D01*
X022000Y004823D01*
X022084Y004786D01*
X022170Y004756D01*
X022259Y004731D01*
X022349Y004713D01*
X022440Y004702D01*
X022531Y004697D01*
X022623Y004699D01*
X022714Y004707D01*
X022804Y004722D01*
X022894Y004744D01*
X022981Y004772D01*
X023066Y004806D01*
X023148Y004846D01*
X023228Y004892D01*
X023303Y004944D01*
X023375Y005000D01*
X023443Y005062D01*
X023506Y005129D01*
X023563Y005200D01*
X023556Y005206D01*
X023499Y005135D01*
X023436Y005069D01*
X023369Y005007D01*
X023298Y004951D01*
X023223Y004900D01*
X023144Y004854D01*
X023062Y004814D01*
X022978Y004780D01*
X022891Y004753D01*
X022803Y004731D01*
X022713Y004716D01*
X022622Y004708D01*
X022531Y004706D01*
X022440Y004711D01*
X022350Y004722D01*
X022261Y004740D01*
X022173Y004764D01*
X022087Y004795D01*
X022004Y004831D01*
X021924Y004874D01*
X021846Y004922D01*
X021773Y004976D01*
X021704Y005035D01*
X021639Y005098D01*
X021578Y005167D01*
X021523Y005239D01*
X021474Y005315D01*
X021429Y005395D01*
X021391Y005477D01*
X021359Y005563D01*
X021333Y005650D01*
X021314Y005739D01*
X021300Y005829D01*
X021294Y005920D01*
X021294Y006010D01*
X021300Y006101D01*
X021314Y006191D01*
X021333Y006280D01*
X021359Y006367D01*
X021391Y006453D01*
X021429Y006535D01*
X021474Y006615D01*
X021523Y006691D01*
X021578Y006763D01*
X021639Y006832D01*
X021704Y006895D01*
X021773Y006954D01*
X021846Y007008D01*
X021924Y007056D01*
X022004Y007099D01*
X022087Y007135D01*
X022173Y007166D01*
X022261Y007190D01*
X022350Y007208D01*
X022440Y007219D01*
X022531Y007224D01*
X022622Y007222D01*
X022713Y007214D01*
X022803Y007199D01*
X022891Y007177D01*
X022978Y007150D01*
X023062Y007116D01*
X023144Y007076D01*
X023223Y007030D01*
X023298Y006979D01*
X023369Y006923D01*
X023436Y006861D01*
X023499Y006795D01*
X023556Y006724D01*
X023549Y006719D01*
X023492Y006789D01*
X023430Y006855D01*
X023363Y006916D01*
X023293Y006972D01*
X023218Y007023D01*
X023140Y007068D01*
X023059Y007108D01*
X022975Y007141D01*
X022889Y007169D01*
X022801Y007190D01*
X022712Y007205D01*
X022622Y007213D01*
X022531Y007215D01*
X022441Y007210D01*
X022352Y007199D01*
X022263Y007181D01*
X022176Y007157D01*
X022091Y007127D01*
X022008Y007090D01*
X021928Y007048D01*
X021852Y007000D01*
X021779Y006947D01*
X021710Y006889D01*
X021645Y006825D01*
X021585Y006758D01*
X021531Y006686D01*
X021481Y006610D01*
X021437Y006531D01*
X021400Y006449D01*
X021368Y006365D01*
X021342Y006278D01*
X021322Y006190D01*
X021309Y006100D01*
X021303Y006010D01*
X021303Y005920D01*
X021309Y005830D01*
X021322Y005740D01*
X021342Y005652D01*
X021368Y005565D01*
X021400Y005481D01*
X021437Y005399D01*
X021481Y005320D01*
X021531Y005244D01*
X021585Y005172D01*
X021645Y005105D01*
X021710Y005041D01*
X021779Y004983D01*
X021852Y004930D01*
X021928Y004882D01*
X022008Y004840D01*
X022091Y004803D01*
X022176Y004773D01*
X022263Y004749D01*
X022352Y004731D01*
X022441Y004720D01*
X022531Y004715D01*
X022622Y004717D01*
X022712Y004725D01*
X022801Y004740D01*
X022889Y004761D01*
X022975Y004789D01*
X023059Y004822D01*
X023140Y004862D01*
X023218Y004907D01*
X023293Y004958D01*
X023363Y005014D01*
X023430Y005075D01*
X023492Y005141D01*
X023549Y005211D01*
X023542Y005216D01*
X023485Y005147D01*
X023424Y005082D01*
X023358Y005021D01*
X023287Y004965D01*
X023213Y004915D01*
X023136Y004870D01*
X023055Y004830D01*
X022972Y004797D01*
X022886Y004770D01*
X022799Y004749D01*
X022710Y004734D01*
X022621Y004726D01*
X022531Y004724D01*
X022442Y004729D01*
X022353Y004740D01*
X022265Y004758D01*
X022179Y004782D01*
X022094Y004812D01*
X022012Y004848D01*
X021933Y004890D01*
X021857Y004937D01*
X021784Y004990D01*
X021716Y005048D01*
X021652Y005111D01*
X021592Y005178D01*
X021538Y005250D01*
X021489Y005325D01*
X021446Y005403D01*
X021408Y005484D01*
X021376Y005568D01*
X021351Y005654D01*
X021331Y005742D01*
X021318Y005831D01*
X021312Y005920D01*
X021312Y006010D01*
X021318Y006099D01*
X021331Y006188D01*
X021351Y006276D01*
X021376Y006362D01*
X021408Y006446D01*
X021446Y006527D01*
X021489Y006605D01*
X021538Y006680D01*
X021592Y006752D01*
X021652Y006819D01*
X021716Y006882D01*
X021784Y006940D01*
X021857Y006993D01*
X021933Y007040D01*
X022012Y007082D01*
X022094Y007118D01*
X022179Y007148D01*
X022265Y007172D01*
X022353Y007190D01*
X022442Y007201D01*
X022531Y007206D01*
X022621Y007204D01*
X022710Y007196D01*
X022799Y007181D01*
X022886Y007160D01*
X022972Y007133D01*
X023055Y007100D01*
X023136Y007060D01*
X023213Y007015D01*
X023287Y006965D01*
X023358Y006909D01*
X023424Y006848D01*
X023485Y006783D01*
X023542Y006714D01*
X023535Y006708D01*
X023478Y006777D01*
X023417Y006842D01*
X023352Y006902D01*
X023282Y006958D01*
X023208Y007008D01*
X023131Y007052D01*
X023051Y007091D01*
X022969Y007124D01*
X022884Y007152D01*
X022797Y007172D01*
X022709Y007187D01*
X022621Y007195D01*
X022532Y007197D01*
X022443Y007192D01*
X022354Y007181D01*
X022267Y007164D01*
X022181Y007140D01*
X022097Y007110D01*
X022016Y007074D01*
X021937Y007033D01*
X021862Y006985D01*
X021790Y006933D01*
X021722Y006875D01*
X021658Y006813D01*
X021599Y006746D01*
X021545Y006675D01*
X021497Y006601D01*
X021454Y006523D01*
X021416Y006442D01*
X021385Y006359D01*
X021359Y006273D01*
X021340Y006186D01*
X021327Y006098D01*
X021321Y006010D01*
X021321Y005920D01*
X021327Y005832D01*
X021340Y005744D01*
X021359Y005657D01*
X021385Y005571D01*
X021416Y005488D01*
X021454Y005407D01*
X021497Y005329D01*
X021545Y005255D01*
X021599Y005184D01*
X021658Y005117D01*
X021722Y005055D01*
X021790Y004997D01*
X021862Y004945D01*
X021937Y004897D01*
X022016Y004856D01*
X022097Y004820D01*
X022181Y004790D01*
X022267Y004766D01*
X022354Y004749D01*
X022443Y004738D01*
X022532Y004733D01*
X022621Y004735D01*
X022709Y004743D01*
X022797Y004758D01*
X022884Y004778D01*
X022969Y004806D01*
X023051Y004839D01*
X023131Y004878D01*
X023208Y004922D01*
X023282Y004972D01*
X023352Y005028D01*
X023417Y005088D01*
X023478Y005153D01*
X023535Y005222D01*
X023527Y005227D01*
X023472Y005159D01*
X023411Y005094D01*
X023346Y005035D01*
X023277Y004980D01*
X023203Y004930D01*
X023127Y004886D01*
X023048Y004847D01*
X022965Y004814D01*
X022881Y004787D01*
X022795Y004766D01*
X022708Y004752D01*
X022620Y004744D01*
X022532Y004742D01*
X022443Y004747D01*
X022356Y004758D01*
X022269Y004775D01*
X022184Y004799D01*
X022101Y004828D01*
X022020Y004864D01*
X021942Y004905D01*
X021867Y004952D01*
X021795Y005004D01*
X021728Y005061D01*
X021665Y005123D01*
X021606Y005190D01*
X021553Y005260D01*
X021504Y005334D01*
X021462Y005411D01*
X021424Y005491D01*
X021393Y005574D01*
X021368Y005659D01*
X021349Y005745D01*
X021336Y005833D01*
X021330Y005921D01*
X021330Y006009D01*
X021336Y006097D01*
X021349Y006185D01*
X021368Y006271D01*
X021393Y006356D01*
X021424Y006439D01*
X021462Y006519D01*
X021504Y006596D01*
X021553Y006670D01*
X021606Y006740D01*
X021665Y006807D01*
X021728Y006869D01*
X021795Y006926D01*
X021867Y006978D01*
X021942Y007025D01*
X022020Y007066D01*
X022101Y007102D01*
X022184Y007131D01*
X022269Y007155D01*
X022356Y007172D01*
X022443Y007183D01*
X022532Y007188D01*
X022620Y007186D01*
X022708Y007178D01*
X022795Y007164D01*
X022881Y007143D01*
X022965Y007116D01*
X023048Y007083D01*
X023127Y007044D01*
X023203Y007000D01*
X023277Y006950D01*
X023346Y006895D01*
X023411Y006836D01*
X023472Y006771D01*
X023527Y006703D01*
X023520Y006697D01*
X023465Y006765D01*
X023405Y006829D01*
X023340Y006889D01*
X023271Y006943D01*
X023199Y006992D01*
X023123Y007036D01*
X023044Y007075D01*
X022962Y007108D01*
X022879Y007134D01*
X022794Y007155D01*
X022707Y007169D01*
X022620Y007177D01*
X022532Y007179D01*
X022444Y007174D01*
X022357Y007163D01*
X022271Y007146D01*
X022187Y007123D01*
X022104Y007093D01*
X022024Y007058D01*
X021946Y007017D01*
X021872Y006970D01*
X021801Y006919D01*
X021734Y006862D01*
X021671Y006801D01*
X021613Y006735D01*
X021560Y006665D01*
X021512Y006591D01*
X021470Y006515D01*
X021433Y006435D01*
X021402Y006353D01*
X021377Y006269D01*
X021358Y006183D01*
X021345Y006096D01*
X021339Y006009D01*
X021339Y005921D01*
X021345Y005834D01*
X021358Y005747D01*
X021377Y005661D01*
X021402Y005577D01*
X021433Y005495D01*
X021470Y005415D01*
X021512Y005339D01*
X021560Y005265D01*
X021613Y005195D01*
X021671Y005129D01*
X021734Y005068D01*
X021801Y005011D01*
X021872Y004960D01*
X021946Y004913D01*
X022024Y004872D01*
X022104Y004837D01*
X022187Y004807D01*
X022271Y004784D01*
X022357Y004767D01*
X022444Y004756D01*
X022532Y004751D01*
X022620Y004753D01*
X022707Y004761D01*
X022794Y004775D01*
X022879Y004796D01*
X022962Y004822D01*
X023044Y004855D01*
X023123Y004894D01*
X023199Y004938D01*
X023271Y004987D01*
X023340Y005041D01*
X023405Y005101D01*
X023465Y005165D01*
X023520Y005233D01*
X011394Y010122D02*
X011419Y010154D01*
X011418Y010153D02*
X011466Y010118D01*
X011515Y010086D01*
X011566Y010057D01*
X011618Y010031D01*
X011602Y009995D01*
X011601Y009995D01*
X011547Y010022D01*
X011494Y010052D01*
X011443Y010085D01*
X011394Y010122D01*
X011399Y010129D01*
X011448Y010093D01*
X011499Y010060D01*
X011551Y010030D01*
X011605Y010003D01*
X011609Y010011D01*
X011555Y010038D01*
X011503Y010067D01*
X011453Y010100D01*
X011405Y010136D01*
X011410Y010143D01*
X011458Y010108D01*
X011508Y010075D01*
X011559Y010046D01*
X011613Y010019D01*
X011616Y010027D01*
X011564Y010054D01*
X011513Y010083D01*
X011463Y010115D01*
X011416Y010150D01*
X012512Y010000D02*
X012495Y010036D01*
X012495Y010035D02*
X012552Y010065D01*
X012608Y010098D01*
X012661Y010134D01*
X012712Y010174D01*
X012760Y010217D01*
X012805Y010262D01*
X012848Y010311D01*
X012887Y010362D01*
X012923Y010415D01*
X012956Y010471D01*
X012985Y010528D01*
X013010Y010587D01*
X013032Y010648D01*
X013050Y010710D01*
X013064Y010773D01*
X013074Y010836D01*
X013080Y010901D01*
X013082Y010965D01*
X013080Y011029D01*
X013074Y011094D01*
X013064Y011157D01*
X013050Y011220D01*
X013032Y011282D01*
X013010Y011343D01*
X012985Y011402D01*
X012956Y011459D01*
X012923Y011515D01*
X012887Y011568D01*
X012848Y011619D01*
X012805Y011668D01*
X012760Y011713D01*
X012712Y011756D01*
X012661Y011796D01*
X012608Y011832D01*
X012552Y011865D01*
X012495Y011895D01*
X012512Y011930D01*
X012512Y011931D01*
X012570Y011901D01*
X012626Y011868D01*
X012680Y011831D01*
X012732Y011792D01*
X012781Y011749D01*
X012827Y011703D01*
X012870Y011654D01*
X012911Y011603D01*
X012948Y011550D01*
X012982Y011494D01*
X013012Y011437D01*
X013039Y011377D01*
X013063Y011317D01*
X013082Y011254D01*
X013098Y011191D01*
X013110Y011127D01*
X013118Y011063D01*
X013122Y010998D01*
X013122Y010932D01*
X013118Y010867D01*
X013110Y010803D01*
X013098Y010739D01*
X013082Y010676D01*
X013063Y010613D01*
X013039Y010553D01*
X013012Y010493D01*
X012982Y010436D01*
X012948Y010380D01*
X012911Y010327D01*
X012870Y010276D01*
X012827Y010227D01*
X012781Y010181D01*
X012732Y010138D01*
X012680Y010099D01*
X012626Y010062D01*
X012570Y010029D01*
X012512Y009999D01*
X012508Y010007D01*
X012566Y010037D01*
X012621Y010070D01*
X012675Y010106D01*
X012726Y010145D01*
X012774Y010188D01*
X012820Y010233D01*
X012863Y010281D01*
X012904Y010332D01*
X012940Y010385D01*
X012974Y010440D01*
X013004Y010497D01*
X013031Y010556D01*
X013054Y010616D01*
X013073Y010678D01*
X013089Y010741D01*
X013101Y010804D01*
X013109Y010868D01*
X013113Y010933D01*
X013113Y010997D01*
X013109Y011062D01*
X013101Y011126D01*
X013089Y011189D01*
X013073Y011252D01*
X013054Y011314D01*
X013031Y011374D01*
X013004Y011433D01*
X012974Y011490D01*
X012940Y011545D01*
X012904Y011598D01*
X012863Y011649D01*
X012820Y011697D01*
X012774Y011742D01*
X012726Y011785D01*
X012675Y011824D01*
X012621Y011860D01*
X012566Y011893D01*
X012508Y011923D01*
X012505Y011915D01*
X012562Y011885D01*
X012617Y011853D01*
X012670Y011817D01*
X012720Y011778D01*
X012768Y011735D01*
X012814Y011690D01*
X012857Y011643D01*
X012896Y011593D01*
X012933Y011540D01*
X012966Y011485D01*
X012996Y011429D01*
X013023Y011370D01*
X013046Y011311D01*
X013065Y011250D01*
X013080Y011187D01*
X013092Y011124D01*
X013100Y011061D01*
X013104Y010997D01*
X013104Y010933D01*
X013100Y010869D01*
X013092Y010806D01*
X013080Y010743D01*
X013065Y010680D01*
X013046Y010619D01*
X013023Y010560D01*
X012996Y010501D01*
X012966Y010445D01*
X012933Y010390D01*
X012896Y010337D01*
X012857Y010287D01*
X012814Y010240D01*
X012768Y010195D01*
X012720Y010152D01*
X012670Y010113D01*
X012617Y010077D01*
X012562Y010045D01*
X012505Y010015D01*
X012501Y010023D01*
X012557Y010053D01*
X012612Y010085D01*
X012664Y010121D01*
X012714Y010159D01*
X012762Y010201D01*
X012807Y010246D01*
X012850Y010293D01*
X012889Y010343D01*
X012925Y010395D01*
X012958Y010449D01*
X012988Y010505D01*
X013014Y010563D01*
X013037Y010622D01*
X013056Y010683D01*
X013071Y010744D01*
X013083Y010807D01*
X013091Y010870D01*
X013095Y010933D01*
X013095Y010997D01*
X013091Y011060D01*
X013083Y011123D01*
X013071Y011186D01*
X013056Y011247D01*
X013037Y011308D01*
X013014Y011367D01*
X012988Y011425D01*
X012958Y011481D01*
X012925Y011535D01*
X012889Y011587D01*
X012850Y011637D01*
X012807Y011684D01*
X012762Y011729D01*
X012714Y011771D01*
X012664Y011809D01*
X012612Y011845D01*
X012557Y011877D01*
X012501Y011907D01*
X012497Y011898D01*
X012553Y011870D01*
X012607Y011837D01*
X012659Y011802D01*
X012709Y011764D01*
X012756Y011722D01*
X012801Y011678D01*
X012843Y011631D01*
X012882Y011582D01*
X012918Y011530D01*
X012951Y011476D01*
X012980Y011421D01*
X013006Y011363D01*
X013029Y011305D01*
X013047Y011245D01*
X013063Y011184D01*
X013074Y011122D01*
X013082Y011059D01*
X013086Y010996D01*
X013086Y010934D01*
X013082Y010871D01*
X013074Y010808D01*
X013063Y010746D01*
X013047Y010685D01*
X013029Y010625D01*
X013006Y010567D01*
X012980Y010509D01*
X012951Y010454D01*
X012918Y010400D01*
X012882Y010348D01*
X012843Y010299D01*
X012801Y010252D01*
X012756Y010208D01*
X012709Y010166D01*
X012659Y010128D01*
X012607Y010093D01*
X012553Y010060D01*
X012497Y010032D01*
X011592Y011931D02*
X011609Y011895D01*
X011609Y011896D02*
X011559Y011870D01*
X011510Y011842D01*
X011463Y011811D01*
X011418Y011778D01*
X011394Y011809D01*
X011441Y011844D01*
X011489Y011876D01*
X011540Y011905D01*
X011592Y011932D01*
X011596Y011924D01*
X011544Y011898D01*
X011494Y011868D01*
X011446Y011837D01*
X011399Y011802D01*
X011405Y011795D01*
X011451Y011829D01*
X011499Y011861D01*
X011548Y011890D01*
X011599Y011916D01*
X011603Y011908D01*
X011553Y011882D01*
X011504Y011853D01*
X011456Y011822D01*
X011410Y011788D01*
X011416Y011781D01*
X011461Y011815D01*
X011508Y011845D01*
X011557Y011874D01*
X011607Y011899D01*
X008592Y011931D02*
X008609Y011895D01*
X008609Y011896D02*
X008559Y011870D01*
X008510Y011842D01*
X008463Y011811D01*
X008418Y011778D01*
X008394Y011809D01*
X008441Y011844D01*
X008489Y011876D01*
X008540Y011905D01*
X008592Y011932D01*
X008596Y011924D01*
X008544Y011898D01*
X008494Y011868D01*
X008446Y011837D01*
X008399Y011802D01*
X008405Y011795D01*
X008451Y011829D01*
X008499Y011861D01*
X008548Y011890D01*
X008599Y011916D01*
X008603Y011908D01*
X008553Y011882D01*
X008504Y011853D01*
X008456Y011822D01*
X008410Y011788D01*
X008416Y011781D01*
X008461Y011815D01*
X008508Y011845D01*
X008557Y011874D01*
X008607Y011899D01*
X009512Y010000D02*
X009495Y010036D01*
X009495Y010035D02*
X009552Y010065D01*
X009608Y010098D01*
X009661Y010134D01*
X009712Y010174D01*
X009760Y010217D01*
X009805Y010262D01*
X009848Y010311D01*
X009887Y010362D01*
X009923Y010415D01*
X009956Y010471D01*
X009985Y010528D01*
X010010Y010587D01*
X010032Y010648D01*
X010050Y010710D01*
X010064Y010773D01*
X010074Y010836D01*
X010080Y010901D01*
X010082Y010965D01*
X010080Y011029D01*
X010074Y011094D01*
X010064Y011157D01*
X010050Y011220D01*
X010032Y011282D01*
X010010Y011343D01*
X009985Y011402D01*
X009956Y011459D01*
X009923Y011515D01*
X009887Y011568D01*
X009848Y011619D01*
X009805Y011668D01*
X009760Y011713D01*
X009712Y011756D01*
X009661Y011796D01*
X009608Y011832D01*
X009552Y011865D01*
X009495Y011895D01*
X009512Y011930D01*
X009512Y011931D01*
X009570Y011901D01*
X009626Y011868D01*
X009680Y011831D01*
X009732Y011792D01*
X009781Y011749D01*
X009827Y011703D01*
X009870Y011654D01*
X009911Y011603D01*
X009948Y011550D01*
X009982Y011494D01*
X010012Y011437D01*
X010039Y011377D01*
X010063Y011317D01*
X010082Y011254D01*
X010098Y011191D01*
X010110Y011127D01*
X010118Y011063D01*
X010122Y010998D01*
X010122Y010932D01*
X010118Y010867D01*
X010110Y010803D01*
X010098Y010739D01*
X010082Y010676D01*
X010063Y010613D01*
X010039Y010553D01*
X010012Y010493D01*
X009982Y010436D01*
X009948Y010380D01*
X009911Y010327D01*
X009870Y010276D01*
X009827Y010227D01*
X009781Y010181D01*
X009732Y010138D01*
X009680Y010099D01*
X009626Y010062D01*
X009570Y010029D01*
X009512Y009999D01*
X009508Y010007D01*
X009566Y010037D01*
X009621Y010070D01*
X009675Y010106D01*
X009726Y010145D01*
X009774Y010188D01*
X009820Y010233D01*
X009863Y010281D01*
X009904Y010332D01*
X009940Y010385D01*
X009974Y010440D01*
X010004Y010497D01*
X010031Y010556D01*
X010054Y010616D01*
X010073Y010678D01*
X010089Y010741D01*
X010101Y010804D01*
X010109Y010868D01*
X010113Y010933D01*
X010113Y010997D01*
X010109Y011062D01*
X010101Y011126D01*
X010089Y011189D01*
X010073Y011252D01*
X010054Y011314D01*
X010031Y011374D01*
X010004Y011433D01*
X009974Y011490D01*
X009940Y011545D01*
X009904Y011598D01*
X009863Y011649D01*
X009820Y011697D01*
X009774Y011742D01*
X009726Y011785D01*
X009675Y011824D01*
X009621Y011860D01*
X009566Y011893D01*
X009508Y011923D01*
X009505Y011915D01*
X009562Y011885D01*
X009617Y011853D01*
X009670Y011817D01*
X009720Y011778D01*
X009768Y011735D01*
X009814Y011690D01*
X009857Y011643D01*
X009896Y011593D01*
X009933Y011540D01*
X009966Y011485D01*
X009996Y011429D01*
X010023Y011370D01*
X010046Y011311D01*
X010065Y011250D01*
X010080Y011187D01*
X010092Y011124D01*
X010100Y011061D01*
X010104Y010997D01*
X010104Y010933D01*
X010100Y010869D01*
X010092Y010806D01*
X010080Y010743D01*
X010065Y010680D01*
X010046Y010619D01*
X010023Y010560D01*
X009996Y010501D01*
X009966Y010445D01*
X009933Y010390D01*
X009896Y010337D01*
X009857Y010287D01*
X009814Y010240D01*
X009768Y010195D01*
X009720Y010152D01*
X009670Y010113D01*
X009617Y010077D01*
X009562Y010045D01*
X009505Y010015D01*
X009501Y010023D01*
X009557Y010053D01*
X009612Y010085D01*
X009664Y010121D01*
X009714Y010159D01*
X009762Y010201D01*
X009807Y010246D01*
X009850Y010293D01*
X009889Y010343D01*
X009925Y010395D01*
X009958Y010449D01*
X009988Y010505D01*
X010014Y010563D01*
X010037Y010622D01*
X010056Y010683D01*
X010071Y010744D01*
X010083Y010807D01*
X010091Y010870D01*
X010095Y010933D01*
X010095Y010997D01*
X010091Y011060D01*
X010083Y011123D01*
X010071Y011186D01*
X010056Y011247D01*
X010037Y011308D01*
X010014Y011367D01*
X009988Y011425D01*
X009958Y011481D01*
X009925Y011535D01*
X009889Y011587D01*
X009850Y011637D01*
X009807Y011684D01*
X009762Y011729D01*
X009714Y011771D01*
X009664Y011809D01*
X009612Y011845D01*
X009557Y011877D01*
X009501Y011907D01*
X009497Y011898D01*
X009553Y011870D01*
X009607Y011837D01*
X009659Y011802D01*
X009709Y011764D01*
X009756Y011722D01*
X009801Y011678D01*
X009843Y011631D01*
X009882Y011582D01*
X009918Y011530D01*
X009951Y011476D01*
X009980Y011421D01*
X010006Y011363D01*
X010029Y011305D01*
X010047Y011245D01*
X010063Y011184D01*
X010074Y011122D01*
X010082Y011059D01*
X010086Y010996D01*
X010086Y010934D01*
X010082Y010871D01*
X010074Y010808D01*
X010063Y010746D01*
X010047Y010685D01*
X010029Y010625D01*
X010006Y010567D01*
X009980Y010509D01*
X009951Y010454D01*
X009918Y010400D01*
X009882Y010348D01*
X009843Y010299D01*
X009801Y010252D01*
X009756Y010208D01*
X009709Y010166D01*
X009659Y010128D01*
X009607Y010093D01*
X009553Y010060D01*
X009497Y010032D01*
X008394Y010122D02*
X008419Y010154D01*
X008418Y010153D02*
X008466Y010118D01*
X008515Y010086D01*
X008566Y010057D01*
X008618Y010031D01*
X008602Y009995D01*
X008601Y009995D01*
X008547Y010022D01*
X008494Y010052D01*
X008443Y010085D01*
X008394Y010122D01*
X008399Y010129D01*
X008448Y010093D01*
X008499Y010060D01*
X008551Y010030D01*
X008605Y010003D01*
X008609Y010011D01*
X008555Y010038D01*
X008503Y010067D01*
X008453Y010100D01*
X008405Y010136D01*
X008410Y010143D01*
X008458Y010108D01*
X008508Y010075D01*
X008559Y010046D01*
X008613Y010019D01*
X008616Y010027D01*
X008564Y010054D01*
X008513Y010083D01*
X008463Y010115D01*
X008416Y010150D01*
D18*
X010602Y008365D02*
X012752Y008365D01*
X012752Y008315D01*
X012752Y007615D01*
X012752Y007565D01*
X010602Y007565D01*
X010582Y007567D01*
X010564Y007573D01*
X010546Y007582D01*
X010531Y007594D01*
X010519Y007609D01*
X010510Y007627D01*
X010504Y007645D01*
X010502Y007665D01*
X010502Y008265D01*
X010504Y008285D01*
X010510Y008303D01*
X010519Y008321D01*
X010531Y008336D01*
X010546Y008348D01*
X010564Y008357D01*
X010582Y008363D01*
X010602Y008365D01*
X011252Y007965D02*
X011452Y007965D01*
X011452Y008165D01*
X011602Y008165D02*
X011602Y007765D01*
X011752Y007765D01*
X011752Y008165D01*
X011602Y008165D01*
X011452Y007965D02*
X011452Y007765D01*
X011902Y007765D02*
X011902Y007965D01*
X011902Y008165D01*
X011902Y007965D02*
X012102Y007965D01*
X012752Y007615D02*
X012902Y007615D01*
X012902Y008315D01*
X012752Y008315D01*
X016552Y009715D02*
X016802Y009465D01*
X017302Y009465D01*
X017552Y009715D01*
X017802Y009465D01*
X018302Y009465D01*
X018552Y009715D01*
X018802Y009465D01*
X019302Y009465D01*
X019552Y009715D01*
X019802Y009465D01*
X020302Y009465D01*
X020552Y009715D01*
X020802Y009465D01*
X021302Y009465D01*
X021552Y009715D01*
X021802Y009465D01*
X022302Y009465D01*
X022552Y009715D01*
X022802Y009465D01*
X023302Y009465D01*
X023552Y009715D01*
X023552Y011215D01*
X023302Y011465D01*
X022802Y011465D01*
X022552Y011215D01*
X022302Y011465D01*
X021802Y011465D01*
X021552Y011215D01*
X021302Y011465D01*
X020802Y011465D01*
X020552Y011215D01*
X020302Y011465D01*
X019802Y011465D01*
X019552Y011215D01*
X019302Y011465D01*
X018802Y011465D01*
X018552Y011215D01*
X018302Y011465D01*
X017802Y011465D01*
X017552Y011215D01*
X017302Y011465D01*
X016802Y011465D01*
X016552Y011215D01*
X016552Y009715D01*
X021552Y005965D02*
X021556Y006056D01*
X021569Y006146D01*
X021589Y006235D01*
X021618Y006321D01*
X021654Y006405D01*
X021698Y006485D01*
X021748Y006560D01*
X021806Y006631D01*
X021869Y006696D01*
X021939Y006755D01*
X022013Y006807D01*
X022092Y006853D01*
X022175Y006891D01*
X022260Y006922D01*
X022349Y006944D01*
X022438Y006959D01*
X022529Y006965D01*
X022620Y006963D01*
X022711Y006952D01*
X022800Y006934D01*
X022887Y006907D01*
X022971Y006873D01*
X023052Y006831D01*
X023129Y006782D01*
X023201Y006726D01*
X023267Y006664D01*
X023328Y006596D01*
X023382Y006523D01*
X023429Y006445D01*
X023469Y006363D01*
X023502Y006278D01*
X023526Y006191D01*
X023543Y006101D01*
X023551Y006011D01*
X023551Y005919D01*
X023543Y005829D01*
X023526Y005739D01*
X023502Y005652D01*
X023469Y005567D01*
X023429Y005485D01*
X023382Y005407D01*
X023328Y005334D01*
X023267Y005266D01*
X023201Y005204D01*
X023129Y005148D01*
X023052Y005099D01*
X022971Y005057D01*
X022887Y005023D01*
X022800Y004996D01*
X022711Y004978D01*
X022620Y004967D01*
X022529Y004965D01*
X022438Y004971D01*
X022349Y004986D01*
X022260Y005008D01*
X022175Y005039D01*
X022092Y005077D01*
X022013Y005123D01*
X021939Y005175D01*
X021869Y005234D01*
X021806Y005299D01*
X021748Y005370D01*
X021698Y005445D01*
X021654Y005525D01*
X021618Y005609D01*
X021589Y005695D01*
X021569Y005784D01*
X021556Y005874D01*
X021552Y005965D01*
X021452Y003965D02*
X020652Y003965D01*
X020552Y003865D01*
X020552Y003065D01*
X020652Y002965D01*
X021452Y002965D01*
X021552Y003065D01*
X021652Y002965D01*
X022452Y002965D01*
X022552Y003065D01*
X022652Y002965D01*
X023452Y002965D01*
X023552Y003065D01*
X023552Y003865D01*
X023452Y003965D01*
X022652Y003965D01*
X022552Y003865D01*
X022452Y003965D01*
X021652Y003965D01*
X021552Y003865D01*
X021452Y003965D01*
X009052Y006065D02*
X008952Y005965D01*
X008152Y005965D01*
X008052Y006065D01*
X008052Y006865D01*
X008152Y006965D01*
X008052Y007065D01*
X008052Y007865D01*
X008152Y007965D01*
X008952Y007965D01*
X009052Y007865D01*
X009052Y007065D01*
X008952Y006965D01*
X009052Y006865D01*
X009052Y006065D01*
X005352Y006465D02*
X005352Y005465D01*
X003752Y005465D01*
X003752Y006465D01*
X005352Y006465D01*
X004952Y006215D02*
X004552Y005965D01*
X004552Y005715D01*
X004552Y005965D02*
X004302Y005965D01*
X004552Y005965D02*
X004552Y006215D01*
X004552Y005965D02*
X005152Y005965D01*
X004952Y005715D02*
X004552Y005965D01*
X004952Y006215D02*
X004952Y005715D01*
X005352Y004965D02*
X003752Y004965D01*
X003752Y003965D01*
X005352Y003965D01*
X005352Y004965D01*
X004802Y004465D02*
X004552Y004465D01*
X004552Y004715D01*
X004552Y004465D02*
X004552Y004215D01*
X004552Y004465D02*
X004152Y004215D01*
X004152Y004715D01*
X004552Y004465D01*
X003952Y004465D01*
X003052Y003865D02*
X002952Y003965D01*
X002152Y003965D01*
X002052Y003865D01*
X002052Y003065D01*
X002152Y002965D01*
X002052Y002865D01*
X002052Y002065D01*
X002152Y001965D01*
X002952Y001965D01*
X003052Y002065D01*
X003052Y002865D01*
X002952Y002965D01*
X003052Y003065D01*
X003052Y003865D01*
X003752Y007465D02*
X003752Y008465D01*
X005352Y008465D01*
X005352Y007465D01*
X003752Y007465D01*
X004552Y007715D02*
X004552Y007965D01*
X004552Y008215D01*
X004552Y007965D02*
X004302Y007965D01*
X004552Y007965D02*
X004952Y008215D01*
X004952Y007715D01*
X004552Y007965D01*
X005152Y007965D01*
X003052Y010065D02*
X002952Y009965D01*
X002152Y009965D01*
X002052Y010065D01*
X002052Y010865D01*
X002152Y010965D01*
X002052Y011065D01*
X002052Y011865D01*
X002152Y011965D01*
X002952Y011965D01*
X003052Y011865D01*
X003052Y011065D01*
X002952Y010965D01*
X003052Y010865D01*
X003052Y010065D01*
D19*
X013037Y008165D03*
X013037Y007765D03*
D20*
X013052Y007765D02*
X013252Y007765D01*
X013252Y008165D02*
X013102Y008165D01*
D21*
X005102Y004465D03*
X004002Y005965D03*
X004002Y007965D03*
D22*
X003377Y007965D03*
X005727Y007965D03*
X005727Y005965D03*
X003377Y005965D03*
X003377Y004465D03*
X005727Y004465D03*
M02*
