G75*
G70*
%OFA0B0*%
%FSLAX24Y24*%
%IPPOS*%
%LPD*%
%AMOC8*
5,1,8,0,0,1.08239X$1,22.5*
%
%ADD10R,0.0400X0.0218*%
%ADD11R,0.0552X0.0218*%
%ADD12R,0.0552X0.0237*%
%ADD13O,0.1120X0.0600*%
%ADD14C,0.0600*%
%ADD15C,0.0740*%
%ADD16R,0.0710X0.0789*%
%ADD17R,0.0789X0.0710*%
%ADD18R,0.0513X0.0474*%
%ADD19R,0.0474X0.0513*%
%ADD20OC8,0.0600*%
%ADD21O,0.1200X0.0640*%
%ADD22O,0.0640X0.1200*%
%ADD23OC8,0.0680*%
%ADD24C,0.0480*%
D10*
X014371Y006824D03*
X014371Y007080D03*
X014371Y007335D03*
X014371Y007591D03*
X014371Y007847D03*
X014371Y008103D03*
X014371Y008359D03*
X014371Y008615D03*
X014371Y008871D03*
X014371Y009127D03*
X016733Y009107D03*
X016733Y008851D03*
X016733Y008595D03*
X016733Y008339D03*
X016733Y008083D03*
X016733Y007828D03*
X016733Y007572D03*
X016733Y007316D03*
X016733Y007060D03*
X016733Y006804D03*
D11*
X016704Y004849D03*
X016704Y004593D03*
X016704Y004337D03*
X016704Y004081D03*
X016704Y003830D03*
X016704Y003578D03*
X016704Y003326D03*
X016704Y003074D03*
X014401Y003078D03*
X014401Y003330D03*
X014401Y003581D03*
X014401Y003833D03*
X014401Y004081D03*
X014401Y004337D03*
X014401Y004593D03*
X014401Y004849D03*
D12*
X010194Y004349D03*
X010194Y004093D03*
X010194Y003837D03*
X010194Y003581D03*
X007910Y003581D03*
X007910Y003837D03*
X007910Y004093D03*
X007910Y004349D03*
D13*
X009052Y009965D03*
X009052Y010965D03*
X009052Y011965D03*
X012052Y011965D03*
X012052Y010965D03*
X012052Y009965D03*
D14*
X013552Y008465D03*
X013552Y007465D03*
D15*
X006552Y007965D03*
X006552Y005965D03*
X006552Y004465D03*
X002552Y004465D03*
X002552Y005965D03*
X002552Y007965D03*
D16*
X007001Y002465D03*
X008103Y002465D03*
D17*
X011052Y002414D03*
X011052Y003517D03*
X007052Y009914D03*
X007052Y011017D03*
X005052Y011017D03*
X005052Y009914D03*
D18*
X010552Y011131D03*
X010552Y011800D03*
X013217Y009465D03*
X013887Y009465D03*
X018052Y007800D03*
X018052Y007131D03*
X017717Y004965D03*
X018387Y004965D03*
X014387Y002465D03*
X013717Y002465D03*
D19*
X013552Y003631D03*
X013552Y004300D03*
X012552Y004131D03*
X012552Y004800D03*
X010887Y004965D03*
X010217Y004965D03*
X017717Y005965D03*
X018387Y005965D03*
X018052Y003800D03*
X018052Y003131D03*
X015887Y009965D03*
X015217Y009965D03*
X014387Y010965D03*
X013717Y010965D03*
D20*
X022052Y005965D03*
X023052Y005965D03*
D21*
X002552Y002465D03*
X002552Y003465D03*
X008552Y006465D03*
X008552Y007465D03*
X002552Y010465D03*
X002552Y011465D03*
D22*
X021052Y003465D03*
X022052Y003465D03*
X023052Y003465D03*
D23*
X023052Y009965D03*
X022052Y009965D03*
X021052Y009965D03*
X020052Y009965D03*
X019052Y009965D03*
X018052Y009965D03*
X017052Y009965D03*
X017052Y010965D03*
X018052Y010965D03*
X019052Y010965D03*
X020052Y010965D03*
X021052Y010965D03*
X022052Y010965D03*
X023052Y010965D03*
D24*
X017252Y008465D03*
X016252Y009265D03*
X014952Y007965D03*
X016152Y007565D03*
X014952Y006465D03*
X015752Y005665D03*
X016152Y006165D03*
X016852Y005265D03*
X017552Y004065D03*
X017252Y003565D03*
X017552Y003165D03*
X015852Y003865D03*
X014952Y004065D03*
X014952Y003265D03*
X014952Y002765D03*
X013052Y004065D03*
X013052Y004565D03*
X014452Y005265D03*
X011452Y005565D03*
X007852Y003165D03*
X013152Y010965D03*
M02*
