%
M48
M72
T01C0.0320
T02C0.0440
T03C0.0360
T04C0.0400
T05C0.0240
%
T01
X1355Y747
X1355Y847
X1205Y997
X1205Y1097
X1205Y1197
X905Y1197
X905Y1097
X905Y997
X2205Y597
X2305Y597
T02
X655Y597
X655Y447
X255Y447
X255Y597
X255Y797
X655Y797
T03
X255Y247
X255Y347
X855Y647
X855Y747
X255Y1047
X255Y1147
X2105Y347
X2205Y347
X2305Y347
T04
X2305Y997
X2205Y997
X2105Y997
X2005Y997
X1905Y997
X1805Y997
X1705Y997
X1705Y1097
X1805Y1097
X1905Y1097
X2005Y1097
X2105Y1097
X2205Y1097
X2305Y1097
T05
X1725Y847
X1625Y927
X1495Y797
X1615Y757
X1495Y647
X1575Y567
X1615Y617
X1685Y527
X1755Y407
X1725Y357
X1755Y317
X1585Y387
X1495Y407
X1495Y327
X1495Y277
X1305Y407
X1305Y457
X1445Y527
X1145Y557
X785Y317
X1315Y1097
M30
