G75*
G70*
%OFA0B0*%
%FSLAX24Y24*%
%IPPOS*%
%LPD*%
%AMOC8*
5,1,8,0,0,1.08239X$1,22.5*
%
%ADD10O,0.1120X0.0600*%
%ADD11C,0.0600*%
%ADD12C,0.0740*%
%ADD13OC8,0.0600*%
%ADD14O,0.1200X0.0640*%
%ADD15O,0.0640X0.1200*%
%ADD16OC8,0.0680*%
%ADD17C,0.0480*%
D10*
X013870Y009965D03*
X013870Y010965D03*
X013870Y011965D03*
X016870Y011965D03*
X016870Y010965D03*
X016870Y009965D03*
D11*
X012370Y008465D03*
X012370Y007465D03*
D12*
X019370Y007965D03*
X019370Y005965D03*
X019370Y004465D03*
X023370Y004465D03*
X023370Y005965D03*
X023370Y007965D03*
D13*
X003870Y005965D03*
X002870Y005965D03*
D14*
X017370Y006465D03*
X017370Y007465D03*
X023370Y010465D03*
X023370Y011465D03*
X023370Y003465D03*
X023370Y002465D03*
D15*
X002870Y003465D03*
X003870Y003465D03*
X004870Y003465D03*
D16*
X004870Y009965D03*
X003870Y009965D03*
X002870Y009965D03*
X002870Y010965D03*
X003870Y010965D03*
X004870Y010965D03*
X005870Y010965D03*
X006870Y010965D03*
X007870Y010965D03*
X008870Y010965D03*
X008870Y009965D03*
X007870Y009965D03*
X006870Y009965D03*
X005870Y009965D03*
D17*
X008670Y008465D03*
X009670Y009265D03*
X010970Y007965D03*
X009770Y007565D03*
X010970Y006465D03*
X010170Y005665D03*
X009770Y006165D03*
X009070Y005265D03*
X008370Y004065D03*
X008670Y003565D03*
X008370Y003165D03*
X010070Y003865D03*
X010970Y004065D03*
X010970Y003265D03*
X010970Y002765D03*
X012870Y004065D03*
X012870Y004565D03*
X011470Y005265D03*
X014470Y005565D03*
X018070Y003165D03*
X012770Y010965D03*
M02*
