G75*
G70*
%OFA0B0*%
%FSLAX24Y24*%
%IPPOS*%
%LPD*%
%AMOC8*
5,1,8,0,0,1.08239X$1,22.5*
%
%ADD10R,0.0320X0.0138*%
%ADD11R,0.0472X0.0138*%
%ADD12R,0.0472X0.0157*%
%ADD13O,0.1040X0.0520*%
%ADD14C,0.0520*%
%ADD15C,0.0660*%
%ADD16R,0.0630X0.0709*%
%ADD17R,0.0709X0.0630*%
%ADD18R,0.0433X0.0394*%
%ADD19R,0.0394X0.0433*%
%ADD20OC8,0.0520*%
%ADD21O,0.1120X0.0560*%
%ADD22O,0.0560X0.1120*%
%ADD23OC8,0.0600*%
%ADD24C,0.0320*%
%ADD25C,0.0080*%
%ADD26C,0.0400*%
D10*
X014371Y006824D03*
X014371Y007080D03*
X014371Y007335D03*
X014371Y007591D03*
X014371Y007847D03*
X014371Y008103D03*
X014371Y008359D03*
X014371Y008615D03*
X014371Y008871D03*
X014371Y009127D03*
X016733Y009107D03*
X016733Y008851D03*
X016733Y008595D03*
X016733Y008339D03*
X016733Y008083D03*
X016733Y007828D03*
X016733Y007572D03*
X016733Y007316D03*
X016733Y007060D03*
X016733Y006804D03*
D11*
X016704Y004849D03*
X016704Y004593D03*
X016704Y004337D03*
X016704Y004081D03*
X016704Y003830D03*
X016704Y003578D03*
X016704Y003326D03*
X016704Y003074D03*
X014401Y003078D03*
X014401Y003330D03*
X014401Y003581D03*
X014401Y003833D03*
X014401Y004081D03*
X014401Y004337D03*
X014401Y004593D03*
X014401Y004849D03*
D12*
X010194Y004349D03*
X010194Y004093D03*
X010194Y003837D03*
X010194Y003581D03*
X007910Y003581D03*
X007910Y003837D03*
X007910Y004093D03*
X007910Y004349D03*
D13*
X009052Y009965D03*
X009052Y010965D03*
X009052Y011965D03*
X012052Y011965D03*
X012052Y010965D03*
X012052Y009965D03*
D14*
X013552Y008465D03*
X013552Y007465D03*
D15*
X006552Y007965D03*
X006552Y005965D03*
X006552Y004465D03*
X002552Y004465D03*
X002552Y005965D03*
X002552Y007965D03*
D16*
X007001Y002465D03*
X008103Y002465D03*
D17*
X011052Y002414D03*
X011052Y003517D03*
X007052Y009914D03*
X007052Y011017D03*
X005052Y011017D03*
X005052Y009914D03*
D18*
X010552Y011131D03*
X010552Y011800D03*
X013217Y009465D03*
X013887Y009465D03*
X018052Y007800D03*
X018052Y007131D03*
X017717Y004965D03*
X018387Y004965D03*
X014387Y002465D03*
X013717Y002465D03*
D19*
X013552Y003631D03*
X013552Y004300D03*
X012552Y004131D03*
X012552Y004800D03*
X010887Y004965D03*
X010217Y004965D03*
X017717Y005965D03*
X018387Y005965D03*
X018052Y003800D03*
X018052Y003131D03*
X015887Y009965D03*
X015217Y009965D03*
X014387Y010965D03*
X013717Y010965D03*
D20*
X022052Y005965D03*
X023052Y005965D03*
D21*
X008552Y006465D03*
X008552Y007465D03*
X002552Y010465D03*
X002552Y011465D03*
X002552Y003465D03*
X002552Y002465D03*
D22*
X021052Y003465D03*
X022052Y003465D03*
X023052Y003465D03*
D23*
X023052Y009965D03*
X022052Y009965D03*
X021052Y009965D03*
X020052Y009965D03*
X019052Y009965D03*
X018052Y009965D03*
X017052Y009965D03*
X017052Y010965D03*
X018052Y010965D03*
X019052Y010965D03*
X020052Y010965D03*
X021052Y010965D03*
X022052Y010965D03*
X023052Y010965D03*
D24*
X003372Y002465D02*
X003372Y002277D01*
X006426Y002277D01*
X006426Y002465D01*
X007001Y002465D01*
X007001Y002466D01*
X007001Y002466D01*
X007001Y003080D01*
X007412Y003080D01*
X007412Y003253D01*
X007463Y003375D01*
X007434Y003403D01*
X007434Y003760D01*
X007434Y003887D01*
X007414Y003907D01*
X007414Y004093D01*
X007484Y004093D01*
X007483Y004093D01*
X007414Y004093D01*
X007414Y004163D01*
X007414Y004191D01*
X007414Y004280D01*
X007414Y004349D01*
X007483Y004349D01*
X007484Y004349D01*
X007414Y004349D01*
X007414Y004536D01*
X007566Y004688D01*
X007910Y004688D01*
X007910Y004432D01*
X007910Y004350D01*
X007911Y004350D01*
X007911Y004432D01*
X007911Y004688D01*
X008254Y004688D01*
X008407Y004536D01*
X008407Y004349D01*
X008337Y004349D01*
X008337Y004349D01*
X008407Y004349D01*
X008407Y004280D01*
X008407Y004093D01*
X008337Y004093D01*
X008337Y004093D01*
X008407Y004093D01*
X008407Y003907D01*
X008387Y003887D01*
X008387Y003760D01*
X008387Y003403D01*
X008276Y003292D01*
X008292Y003253D01*
X008292Y003078D01*
X008285Y003060D01*
X008518Y003060D01*
X008658Y002919D01*
X008658Y002277D01*
X010438Y002277D01*
X010438Y002414D01*
X011052Y002414D01*
X011052Y002414D01*
X010438Y002414D01*
X010438Y002837D01*
X010580Y002979D01*
X010458Y003102D01*
X010458Y003263D01*
X009858Y003263D01*
X009718Y003403D01*
X009718Y003659D01*
X009718Y003915D01*
X009718Y004171D01*
X009718Y004527D01*
X009810Y004620D01*
X009781Y004649D01*
X009781Y005281D01*
X009921Y005422D01*
X010072Y005422D01*
X010072Y006081D01*
X010236Y006245D01*
X010468Y006245D01*
X012536Y006245D01*
X013314Y007023D01*
X013269Y007041D01*
X013128Y007182D01*
X013052Y007366D01*
X013052Y007565D01*
X013128Y007749D01*
X013269Y007889D01*
X013372Y007932D01*
X013372Y007981D01*
X013384Y007994D01*
X013269Y008041D01*
X013128Y008182D01*
X013052Y008366D01*
X013052Y008565D01*
X013128Y008749D01*
X013269Y008889D01*
X013453Y008965D01*
X013652Y008965D01*
X013772Y008915D01*
X013772Y009029D01*
X013571Y009029D01*
X013566Y009033D01*
X013542Y009009D01*
X013218Y009009D01*
X013218Y009465D01*
X013217Y009465D01*
X012741Y009465D01*
X012741Y009161D01*
X012893Y009009D01*
X013217Y009009D01*
X013217Y009465D01*
X013217Y009466D01*
X013217Y009922D01*
X012893Y009922D01*
X012812Y009841D01*
X012812Y010172D01*
X012519Y010465D01*
X011585Y010465D01*
X011485Y010365D01*
X009619Y010365D01*
X009519Y010465D01*
X008585Y010465D01*
X008452Y010332D01*
X008452Y010598D01*
X008585Y010465D01*
X009519Y010465D01*
X009619Y010565D01*
X010186Y010565D01*
X010496Y010565D01*
X010518Y010565D01*
X010618Y010665D01*
X010688Y010665D01*
X010918Y010665D01*
X011385Y010665D01*
X011585Y010465D01*
X012519Y010465D01*
X012776Y010723D01*
X012779Y010716D01*
X012903Y010592D01*
X013065Y010525D01*
X013240Y010525D01*
X013356Y010574D01*
X013421Y010509D01*
X013772Y010509D01*
X013772Y010449D01*
X013936Y010285D01*
X014168Y010285D01*
X014761Y010285D01*
X014761Y009966D01*
X015217Y009966D01*
X015217Y009965D01*
X014761Y009965D01*
X014761Y009641D01*
X014913Y009489D01*
X015217Y009489D01*
X015217Y009965D01*
X015218Y009965D01*
X015218Y009489D01*
X015472Y009489D01*
X015472Y009445D01*
X014568Y009445D01*
X014389Y009445D01*
X014343Y009445D01*
X014343Y009762D01*
X014203Y009902D01*
X013571Y009902D01*
X013566Y009898D01*
X013542Y009922D01*
X013218Y009922D01*
X013218Y009466D01*
X013217Y009466D01*
X012741Y009466D01*
X012741Y009687D01*
X012519Y009465D01*
X011585Y009465D01*
X011485Y009565D01*
X009619Y009565D01*
X009519Y009465D01*
X008585Y009465D01*
X008452Y009598D01*
X008452Y009131D01*
X008452Y008800D01*
X008218Y008565D01*
X007718Y008565D01*
X007122Y007970D01*
X007122Y007852D01*
X007035Y007642D01*
X006875Y007482D01*
X006666Y007395D01*
X006439Y007395D01*
X006229Y007482D01*
X006069Y007642D01*
X005982Y007852D01*
X005982Y008079D01*
X006069Y008288D01*
X006229Y008449D01*
X006439Y008535D01*
X006556Y008535D01*
X007380Y009359D01*
X006598Y009359D01*
X006458Y009500D01*
X006458Y009514D01*
X005646Y009514D01*
X005646Y009500D01*
X005506Y009359D01*
X004598Y009359D01*
X004458Y009500D01*
X004458Y009565D01*
X003886Y009565D01*
X003652Y009800D01*
X003652Y010065D01*
X003167Y010065D01*
X003047Y009945D01*
X002952Y009945D01*
X002952Y008371D01*
X003035Y008288D01*
X003122Y008079D01*
X003122Y007852D01*
X003035Y007642D01*
X002952Y007559D01*
X002952Y006371D01*
X003035Y006288D01*
X003122Y006079D01*
X003122Y005852D01*
X003035Y005642D01*
X002875Y005482D01*
X002666Y005395D01*
X002439Y005395D01*
X002229Y005482D01*
X002069Y005642D01*
X001982Y005852D01*
X001982Y006079D01*
X002069Y006288D01*
X002152Y006371D01*
X002152Y007559D01*
X002069Y007642D01*
X001982Y007852D01*
X001982Y008079D01*
X002069Y008288D01*
X002152Y008371D01*
X002152Y009945D01*
X002057Y009945D01*
X001927Y010075D01*
X001927Y003856D01*
X002057Y003985D01*
X002152Y003985D01*
X002152Y004059D01*
X002069Y004142D01*
X001982Y004352D01*
X001982Y004579D01*
X002069Y004788D01*
X002229Y004949D01*
X002439Y005035D01*
X002666Y005035D01*
X002875Y004949D01*
X003035Y004788D01*
X003122Y004579D01*
X003122Y004352D01*
X003035Y004142D01*
X002952Y004059D01*
X002952Y003985D01*
X003047Y003985D01*
X003352Y003681D01*
X003352Y003250D01*
X003082Y002979D01*
X003372Y002689D01*
X003372Y002466D01*
X002553Y002466D01*
X002553Y002465D01*
X003372Y002465D01*
X003372Y002602D02*
X006426Y002602D01*
X006426Y002466D02*
X007001Y002466D01*
X007001Y003080D01*
X006578Y003080D01*
X006426Y002927D01*
X006426Y002466D01*
X006426Y002284D02*
X003372Y002284D01*
X003140Y002921D02*
X006426Y002921D01*
X007001Y002921D02*
X007001Y002921D01*
X007001Y002602D02*
X007001Y002602D01*
X007412Y003240D02*
X003342Y003240D01*
X003352Y003558D02*
X007434Y003558D01*
X007434Y003877D02*
X003156Y003877D01*
X003057Y004195D02*
X006047Y004195D01*
X006069Y004142D02*
X006229Y003982D01*
X006439Y003895D01*
X006666Y003895D01*
X006875Y003982D01*
X007035Y004142D01*
X007122Y004352D01*
X007122Y004579D01*
X007035Y004788D01*
X006875Y004949D01*
X006832Y004966D01*
X006832Y005464D01*
X006875Y005482D01*
X007035Y005642D01*
X007122Y005852D01*
X007122Y006079D01*
X007035Y006288D01*
X006875Y006449D01*
X006666Y006535D01*
X006439Y006535D01*
X006229Y006449D01*
X006069Y006288D01*
X005982Y006079D01*
X005982Y005852D01*
X006069Y005642D01*
X006229Y005482D01*
X006272Y005464D01*
X006272Y004966D01*
X006229Y004949D01*
X006069Y004788D01*
X005982Y004579D01*
X005982Y004352D01*
X006069Y004142D01*
X005982Y004514D02*
X003122Y004514D01*
X002991Y004832D02*
X006113Y004832D01*
X006272Y005151D02*
X001927Y005151D01*
X001927Y004832D02*
X002113Y004832D01*
X001982Y004514D02*
X001927Y004514D01*
X001927Y004195D02*
X002047Y004195D01*
X002552Y004465D02*
X002552Y003465D01*
X001948Y003877D02*
X001927Y003877D01*
X001927Y005469D02*
X002260Y005469D01*
X002009Y005788D02*
X001927Y005788D01*
X001927Y006106D02*
X001994Y006106D01*
X001927Y006425D02*
X002152Y006425D01*
X002152Y006744D02*
X001927Y006744D01*
X001927Y007062D02*
X002152Y007062D01*
X002152Y007381D02*
X001927Y007381D01*
X001927Y007699D02*
X002045Y007699D01*
X001982Y008018D02*
X001927Y008018D01*
X001927Y008336D02*
X002117Y008336D01*
X002552Y007965D02*
X002552Y005965D01*
X003096Y005788D02*
X006009Y005788D01*
X005994Y006106D02*
X003111Y006106D01*
X002952Y006425D02*
X006206Y006425D01*
X006899Y006425D02*
X007752Y006425D01*
X007752Y006250D02*
X008057Y005945D01*
X009047Y005945D01*
X009352Y006250D01*
X009352Y006681D01*
X009082Y006951D01*
X009372Y007242D01*
X009372Y007465D01*
X008553Y007465D01*
X008553Y007466D01*
X009372Y007466D01*
X009372Y007689D01*
X009056Y008005D01*
X008552Y008005D01*
X008048Y008005D01*
X007732Y007689D01*
X007732Y007466D01*
X008552Y007466D01*
X008552Y008005D01*
X008552Y007466D01*
X008552Y007466D01*
X008552Y007465D01*
X007732Y007465D01*
X007732Y007242D01*
X008023Y006951D01*
X007752Y006681D01*
X007752Y006250D01*
X007896Y006106D02*
X007111Y006106D01*
X007096Y005788D02*
X010072Y005788D01*
X010072Y005469D02*
X006844Y005469D01*
X006260Y005469D02*
X002844Y005469D01*
X002952Y006744D02*
X007815Y006744D01*
X007912Y007062D02*
X002952Y007062D01*
X002952Y007381D02*
X007732Y007381D01*
X007742Y007699D02*
X007059Y007699D01*
X007170Y008018D02*
X013326Y008018D01*
X013108Y007699D02*
X009362Y007699D01*
X009372Y007381D02*
X013052Y007381D01*
X013248Y007062D02*
X009192Y007062D01*
X009289Y006744D02*
X013034Y006744D01*
X012716Y006425D02*
X009352Y006425D01*
X009209Y006106D02*
X010097Y006106D01*
X009781Y005151D02*
X006832Y005151D01*
X006991Y004832D02*
X009781Y004832D01*
X009718Y004514D02*
X008407Y004514D01*
X008407Y004195D02*
X009718Y004195D01*
X009718Y003877D02*
X008387Y003877D01*
X008387Y003558D02*
X009718Y003558D01*
X010458Y003240D02*
X008292Y003240D01*
X008656Y002921D02*
X010522Y002921D01*
X010438Y002602D02*
X008658Y002602D01*
X008658Y002284D02*
X010438Y002284D01*
X011053Y002414D02*
X011053Y002414D01*
X011666Y002414D01*
X011666Y002277D01*
X013261Y002277D01*
X013261Y002762D01*
X013401Y002902D01*
X013672Y002902D01*
X013672Y003174D01*
X013256Y003174D01*
X013115Y003315D01*
X013115Y003625D01*
X012965Y003625D01*
X012847Y003674D01*
X012256Y003674D01*
X012115Y003815D01*
X012115Y004447D01*
X012134Y004465D01*
X012115Y004484D01*
X012115Y005116D01*
X012256Y005256D01*
X012848Y005256D01*
X012860Y005245D01*
X013836Y005245D01*
X014012Y005245D01*
X014012Y005353D01*
X014079Y005515D01*
X014172Y005608D01*
X014172Y006515D01*
X014112Y006515D01*
X013971Y006655D01*
X013971Y006888D01*
X012932Y005849D01*
X012768Y005685D01*
X011879Y005685D01*
X011892Y005653D01*
X011892Y005478D01*
X011825Y005316D01*
X011701Y005192D01*
X011540Y005125D01*
X011408Y005125D01*
X011324Y005041D01*
X011324Y004649D01*
X011232Y004558D01*
X011232Y004071D01*
X011506Y004071D01*
X011646Y003931D01*
X011646Y003102D01*
X011524Y002979D01*
X011666Y002837D01*
X011666Y002414D01*
X011053Y002414D01*
X011666Y002284D02*
X013261Y002284D01*
X013261Y002602D02*
X011666Y002602D01*
X011582Y002921D02*
X013672Y002921D01*
X013190Y003240D02*
X011646Y003240D01*
X011646Y003558D02*
X013115Y003558D01*
X012115Y003877D02*
X011646Y003877D01*
X011232Y004195D02*
X012115Y004195D01*
X012115Y004514D02*
X011232Y004514D01*
X011324Y004832D02*
X012115Y004832D01*
X012150Y005151D02*
X011601Y005151D01*
X011889Y005469D02*
X014060Y005469D01*
X014172Y005788D02*
X012871Y005788D01*
X013189Y006106D02*
X014172Y006106D01*
X014172Y006425D02*
X013508Y006425D01*
X013826Y006744D02*
X013971Y006744D01*
X014732Y006080D02*
X014865Y006025D01*
X015040Y006025D01*
X015201Y006092D01*
X015325Y006216D01*
X015392Y006378D01*
X015392Y006553D01*
X015325Y006715D01*
X015232Y006808D01*
X015232Y007481D01*
X015145Y007569D01*
X015201Y007592D01*
X015325Y007716D01*
X015392Y007878D01*
X015392Y008053D01*
X015325Y008215D01*
X015201Y008338D01*
X015040Y008405D01*
X014865Y008405D01*
X014791Y008375D01*
X014791Y008536D01*
X014771Y008556D01*
X014771Y008585D01*
X015472Y008585D01*
X015472Y006008D01*
X015379Y005915D01*
X015312Y005753D01*
X015312Y005578D01*
X015379Y005416D01*
X015472Y005323D01*
X015472Y005149D01*
X016172Y004449D01*
X016207Y004414D01*
X016207Y004338D01*
X016284Y004338D01*
X016284Y004337D01*
X016207Y004337D01*
X016207Y004161D01*
X016227Y004141D01*
X016227Y004109D01*
X016225Y004115D01*
X016101Y004238D01*
X015940Y004305D01*
X015765Y004305D01*
X015603Y004238D01*
X015479Y004115D01*
X015412Y003953D01*
X015412Y003778D01*
X015466Y003647D01*
X015332Y003781D01*
X015311Y003802D01*
X015325Y003816D01*
X015392Y003978D01*
X015392Y004153D01*
X015325Y004315D01*
X015201Y004438D01*
X015040Y004505D01*
X014877Y004505D01*
X014877Y004653D01*
X014897Y004673D01*
X014897Y004849D01*
X014789Y004849D01*
X014897Y004849D01*
X014897Y005026D01*
X014849Y005074D01*
X014892Y005178D01*
X014892Y005353D01*
X014825Y005515D01*
X014732Y005608D01*
X014732Y006080D01*
X014732Y005788D02*
X015327Y005788D01*
X015357Y005469D02*
X014844Y005469D01*
X014881Y005151D02*
X015472Y005151D01*
X015789Y004832D02*
X014897Y004832D01*
X014789Y004849D02*
X014789Y004849D01*
X014877Y004514D02*
X016108Y004514D01*
X016145Y004195D02*
X016207Y004195D01*
X015560Y004195D02*
X015375Y004195D01*
X015350Y003877D02*
X015412Y003877D01*
X015632Y003480D02*
X015765Y003425D01*
X015896Y003425D01*
X015972Y003349D01*
X015972Y003281D01*
X015972Y003049D01*
X016072Y002949D01*
X016236Y002785D01*
X016347Y002785D01*
X016368Y002765D01*
X017039Y002765D01*
X017180Y002905D01*
X017180Y002915D01*
X017303Y002792D01*
X017465Y002725D01*
X017640Y002725D01*
X017686Y002744D01*
X017756Y002674D01*
X018348Y002674D01*
X018489Y002815D01*
X018489Y003447D01*
X018484Y003451D01*
X018509Y003476D01*
X018509Y003800D01*
X018509Y004124D01*
X018357Y004276D01*
X018052Y004276D01*
X017941Y004276D01*
X017925Y004315D01*
X017801Y004438D01*
X017640Y004505D01*
X017465Y004505D01*
X017303Y004438D01*
X017210Y004345D01*
X017200Y004345D01*
X017200Y004417D01*
X017232Y004449D01*
X017356Y004574D01*
X017401Y004529D01*
X018033Y004529D01*
X018038Y004533D01*
X018063Y004509D01*
X018387Y004509D01*
X018711Y004509D01*
X018863Y004661D01*
X018863Y004965D01*
X018387Y004965D01*
X018387Y004509D01*
X018387Y004965D01*
X018387Y004965D01*
X018387Y004966D01*
X018387Y004966D01*
X018387Y005422D01*
X018711Y005422D01*
X018863Y005270D01*
X018863Y004966D01*
X018387Y004966D01*
X018387Y005422D01*
X018063Y005422D01*
X018038Y005398D01*
X018033Y005402D01*
X017401Y005402D01*
X017292Y005293D01*
X017292Y005353D01*
X017225Y005515D01*
X017132Y005608D01*
X017132Y006635D01*
X017133Y006636D01*
X017133Y006891D01*
X017133Y006985D01*
X017272Y006985D01*
X017272Y006281D01*
X017272Y006065D01*
X017272Y006049D01*
X017281Y006041D01*
X017281Y005649D01*
X017421Y005509D01*
X018014Y005509D01*
X018052Y005547D01*
X018090Y005509D01*
X018683Y005509D01*
X018824Y005649D01*
X018824Y005685D01*
X021625Y005685D01*
X021845Y005465D01*
X022259Y005465D01*
X022538Y005744D01*
X022837Y005445D01*
X023052Y005445D01*
X023052Y005965D01*
X023052Y005965D01*
X023052Y005445D01*
X023177Y005445D01*
X023177Y004265D01*
X022837Y004265D01*
X022566Y003995D01*
X022276Y004285D01*
X022052Y004285D01*
X021828Y004285D01*
X021538Y003995D01*
X021267Y004265D01*
X020837Y004265D01*
X020532Y003961D01*
X020532Y002970D01*
X020837Y002665D01*
X021267Y002665D01*
X021538Y002936D01*
X021828Y002645D01*
X022052Y002645D01*
X022052Y003465D01*
X022052Y003465D01*
X022052Y002645D01*
X022276Y002645D01*
X022566Y002936D01*
X022837Y002665D01*
X023177Y002665D01*
X023177Y002277D01*
X015632Y002277D01*
X015632Y003249D01*
X015632Y003480D01*
X015632Y003240D02*
X015972Y003240D01*
X016101Y002921D02*
X015632Y002921D01*
X015632Y002602D02*
X023177Y002602D01*
X022581Y002921D02*
X022551Y002921D01*
X022052Y002921D02*
X022052Y002921D01*
X022052Y003240D02*
X022052Y003240D01*
X022052Y003466D02*
X022052Y004285D01*
X022052Y003466D01*
X022052Y003466D01*
X022052Y003558D02*
X022052Y003558D01*
X022052Y003877D02*
X022052Y003877D01*
X022052Y004195D02*
X022052Y004195D01*
X022366Y004195D02*
X022767Y004195D01*
X023177Y004514D02*
X018716Y004514D01*
X018387Y004514D02*
X018387Y004514D01*
X018057Y004514D02*
X017296Y004514D01*
X018052Y004276D02*
X018052Y003800D01*
X018052Y003800D01*
X018052Y004276D01*
X018052Y004195D02*
X018052Y004195D01*
X018438Y004195D02*
X020767Y004195D01*
X021338Y004195D02*
X021738Y004195D01*
X020532Y003877D02*
X018509Y003877D01*
X018509Y003800D02*
X018053Y003800D01*
X018053Y003800D01*
X018509Y003800D01*
X018509Y003558D02*
X020532Y003558D01*
X020532Y003240D02*
X018489Y003240D01*
X018489Y002921D02*
X020581Y002921D01*
X021523Y002921D02*
X021553Y002921D01*
X023177Y002284D02*
X015632Y002284D01*
X018052Y003877D02*
X018052Y003877D01*
X018387Y004832D02*
X018387Y004832D01*
X018387Y005151D02*
X018387Y005151D01*
X018863Y005151D02*
X023177Y005151D01*
X023177Y004832D02*
X018863Y004832D01*
X017244Y005469D02*
X021841Y005469D01*
X022263Y005469D02*
X022813Y005469D01*
X023052Y005469D02*
X023052Y005469D01*
X023052Y005788D02*
X023052Y005788D01*
X023052Y005966D02*
X023052Y006485D01*
X022837Y006485D01*
X022538Y006187D01*
X022259Y006465D01*
X021845Y006465D01*
X021625Y006245D01*
X018824Y006245D01*
X018824Y006281D01*
X018683Y006422D01*
X018090Y006422D01*
X018052Y006383D01*
X018014Y006422D01*
X017832Y006422D01*
X017832Y006694D01*
X018368Y006694D01*
X018509Y006834D01*
X018509Y007427D01*
X018470Y007465D01*
X018509Y007504D01*
X018509Y008096D01*
X018368Y008237D01*
X017932Y008237D01*
X017932Y008249D01*
X018668Y008985D01*
X018832Y009149D01*
X018832Y009425D01*
X019276Y009425D01*
X019552Y009702D01*
X019828Y009425D01*
X020276Y009425D01*
X020538Y009688D01*
X020820Y009405D01*
X021052Y009405D01*
X021052Y009965D01*
X021052Y009965D01*
X021052Y009405D01*
X021284Y009405D01*
X021566Y009688D01*
X021828Y009425D01*
X022276Y009425D01*
X022552Y009702D01*
X022828Y009425D01*
X023177Y009425D01*
X023177Y006485D01*
X023052Y006485D01*
X023052Y005966D01*
X023052Y005966D01*
X023052Y006106D02*
X023052Y006106D01*
X023052Y006425D02*
X023052Y006425D01*
X022776Y006425D02*
X022300Y006425D01*
X021805Y006425D02*
X017832Y006425D01*
X017272Y006425D02*
X017132Y006425D01*
X017133Y006744D02*
X017272Y006744D01*
X017272Y006106D02*
X017132Y006106D01*
X017132Y005788D02*
X017281Y005788D01*
X018418Y006744D02*
X023177Y006744D01*
X023177Y007062D02*
X018509Y007062D01*
X018509Y007381D02*
X023177Y007381D01*
X023177Y007699D02*
X018509Y007699D01*
X018509Y008018D02*
X023177Y008018D01*
X023177Y008336D02*
X018019Y008336D01*
X018337Y008655D02*
X023177Y008655D01*
X023177Y008973D02*
X018656Y008973D01*
X018832Y009292D02*
X023177Y009292D01*
X022643Y009610D02*
X022461Y009610D01*
X021643Y009610D02*
X021489Y009610D01*
X021052Y009610D02*
X021052Y009610D01*
X020615Y009610D02*
X020461Y009610D01*
X021052Y009929D02*
X021052Y009929D01*
X019643Y009610D02*
X019461Y009610D01*
X020552Y011229D02*
X020276Y011505D01*
X020132Y011505D01*
X020132Y011581D01*
X019968Y011745D01*
X019736Y011745D01*
X014036Y011745D01*
X013872Y011581D01*
X013772Y011481D01*
X013772Y011422D01*
X013421Y011422D01*
X013356Y011357D01*
X013240Y011405D01*
X013065Y011405D01*
X012903Y011338D01*
X012779Y011215D01*
X012776Y011208D01*
X012533Y011451D01*
X012832Y011750D01*
X012832Y011965D01*
X012053Y011965D01*
X012053Y011966D01*
X012832Y011966D01*
X012832Y012153D01*
X023177Y012153D01*
X023177Y011505D01*
X022828Y011505D01*
X022552Y011229D01*
X022276Y011505D01*
X021828Y011505D01*
X021552Y011229D01*
X021276Y011505D01*
X020828Y011505D01*
X020552Y011229D01*
X020132Y011522D02*
X023177Y011522D01*
X023177Y011840D02*
X012832Y011840D01*
X012604Y011522D02*
X013812Y011522D01*
X013364Y010566D02*
X013338Y010566D01*
X012966Y010566D02*
X012620Y010566D01*
X012737Y010247D02*
X014761Y010247D01*
X014761Y009929D02*
X012812Y009929D01*
X012741Y009610D02*
X012664Y009610D01*
X012741Y009292D02*
X008452Y009292D01*
X008452Y008973D02*
X013772Y008973D01*
X013218Y009292D02*
X013217Y009292D01*
X013217Y009610D02*
X013218Y009610D01*
X012052Y009965D02*
X009052Y009965D01*
X008484Y010566D02*
X008452Y010566D01*
X008052Y011017D02*
X008052Y008965D01*
X007552Y008965D01*
X006552Y007965D01*
X006117Y008336D02*
X002987Y008336D01*
X003122Y008018D02*
X005982Y008018D01*
X006045Y007699D02*
X003059Y007699D01*
X002552Y007965D02*
X002552Y010465D01*
X004052Y010465D01*
X004052Y009965D01*
X005052Y009965D01*
X005052Y009914D01*
X007052Y009914D01*
X007052Y009965D01*
X007313Y009292D02*
X002952Y009292D01*
X002952Y009610D02*
X003841Y009610D01*
X003652Y009929D02*
X002952Y009929D01*
X002152Y009929D02*
X001927Y009929D01*
X001927Y009610D02*
X002152Y009610D01*
X002152Y009292D02*
X001927Y009292D01*
X001927Y008973D02*
X002152Y008973D01*
X002152Y008655D02*
X001927Y008655D01*
X002952Y008655D02*
X006676Y008655D01*
X006994Y008973D02*
X002952Y008973D01*
X005052Y010965D02*
X005052Y011017D01*
X007052Y011017D01*
X008052Y011017D01*
X008377Y011257D02*
X008218Y011416D01*
X007886Y011416D01*
X007646Y011416D01*
X007646Y011431D01*
X007506Y011571D01*
X006598Y011571D01*
X006458Y011431D01*
X006458Y011416D01*
X005646Y011416D01*
X005646Y011431D01*
X005506Y011571D01*
X005452Y011571D01*
X005452Y011631D01*
X005218Y011865D01*
X004886Y011865D01*
X003167Y011865D01*
X003047Y011985D01*
X002057Y011985D01*
X001927Y011856D01*
X001927Y012153D01*
X008272Y012153D01*
X008272Y011966D01*
X009052Y011966D01*
X009052Y011965D01*
X008272Y011965D01*
X008272Y011750D01*
X008571Y011451D01*
X008377Y011257D01*
X008500Y011522D02*
X007556Y011522D01*
X008272Y011840D02*
X005243Y011840D01*
X005556Y011522D02*
X006549Y011522D01*
X007052Y011017D02*
X007052Y010965D01*
X009052Y010965D02*
X010352Y010965D01*
X010552Y011131D01*
X010752Y011065D01*
X011552Y011065D01*
X012052Y010965D01*
X011484Y010566D02*
X010518Y010566D01*
X010096Y011365D02*
X009619Y011365D01*
X009533Y011451D01*
X009832Y011750D01*
X009832Y011965D01*
X009053Y011965D01*
X009053Y011966D01*
X009832Y011966D01*
X009832Y012153D01*
X010124Y012153D01*
X010076Y012105D01*
X010076Y011800D01*
X010552Y011800D01*
X010352Y011965D01*
X009052Y011965D01*
X009604Y011522D02*
X010076Y011522D01*
X010076Y011495D02*
X010120Y011451D01*
X010096Y011427D01*
X010096Y011365D01*
X010076Y011495D02*
X010076Y011800D01*
X010552Y011800D01*
X010752Y011865D01*
X011552Y011865D01*
X012052Y011965D01*
X011272Y011965D01*
X011272Y011750D01*
X011557Y011465D01*
X011386Y011465D01*
X010998Y011465D01*
X011029Y011495D01*
X011029Y011800D01*
X011029Y012105D01*
X010980Y012153D01*
X011272Y012153D01*
X011272Y011966D01*
X012052Y011966D01*
X012052Y011965D01*
X011500Y011522D02*
X011029Y011522D01*
X011029Y011800D02*
X010553Y011800D01*
X011029Y011800D01*
X011029Y011840D02*
X011272Y011840D01*
X010553Y011800D02*
X010553Y011800D01*
X010552Y011800D02*
X010552Y011800D01*
X010076Y011840D02*
X009832Y011840D01*
X005052Y011465D02*
X005052Y011017D01*
X005052Y011465D02*
X002552Y011465D01*
X007489Y008336D02*
X013064Y008336D01*
X013089Y008655D02*
X008307Y008655D01*
X008552Y007699D02*
X008552Y007699D01*
X012989Y004685D02*
X012989Y004505D01*
X013095Y004505D01*
X013095Y004624D01*
X013156Y004685D01*
X012989Y004685D01*
X012989Y004514D02*
X013095Y004514D01*
X015215Y006106D02*
X015472Y006106D01*
X015472Y006425D02*
X015392Y006425D01*
X015472Y006744D02*
X015296Y006744D01*
X015232Y007062D02*
X015472Y007062D01*
X015472Y007381D02*
X015232Y007381D01*
X015308Y007699D02*
X015472Y007699D01*
X015472Y008018D02*
X015392Y008018D01*
X015472Y008336D02*
X015203Y008336D01*
X015217Y009610D02*
X015218Y009610D01*
X014791Y009610D02*
X014343Y009610D01*
X015217Y009929D02*
X015218Y009929D01*
X007911Y004514D02*
X007910Y004514D01*
X007910Y004349D02*
X007910Y004156D01*
X007911Y004156D01*
X007911Y004349D01*
X007910Y004349D01*
X007910Y004195D02*
X007911Y004195D01*
X007414Y004195D02*
X007057Y004195D01*
X007122Y004514D02*
X007414Y004514D01*
D25*
X007852Y004365D02*
X007910Y004349D01*
X008052Y004365D01*
X008552Y003865D01*
X008552Y002665D01*
X010752Y002665D01*
X011052Y002414D01*
X011052Y003517D02*
X010752Y003565D01*
X010352Y003565D01*
X010194Y003581D01*
X010252Y003565D01*
X010252Y003765D01*
X010194Y003837D01*
X010952Y003765D02*
X011052Y003517D01*
X010952Y003765D02*
X010952Y004765D01*
X010887Y004965D01*
X011052Y005165D01*
X011452Y005565D01*
X010352Y005965D02*
X012652Y005965D01*
X013952Y007265D01*
X013952Y007565D01*
X014252Y007565D01*
X014371Y007591D01*
X014452Y007565D01*
X014552Y007565D01*
X014952Y007965D01*
X015052Y008365D02*
X015352Y008065D01*
X015352Y004865D01*
X014552Y004865D01*
X014401Y004849D01*
X014401Y004593D02*
X014252Y004565D01*
X014152Y004565D01*
X013952Y004765D01*
X013952Y004965D01*
X012652Y004965D01*
X012552Y004800D01*
X013052Y004565D02*
X013052Y004465D01*
X013452Y004465D01*
X013552Y004300D01*
X013952Y004165D02*
X014152Y004365D01*
X014252Y004365D01*
X014401Y004337D01*
X014401Y004081D02*
X014552Y004065D01*
X014952Y004065D01*
X014401Y003833D02*
X014252Y003865D01*
X014152Y003865D01*
X013952Y003665D01*
X013952Y002665D01*
X013852Y002565D01*
X013717Y002465D01*
X014387Y002465D02*
X014552Y002365D01*
X015352Y002365D01*
X015352Y003365D01*
X015052Y003665D01*
X014752Y003665D01*
X014752Y003565D01*
X014552Y003565D01*
X014401Y003581D01*
X014401Y003330D02*
X014552Y003365D01*
X014652Y003365D01*
X014752Y003265D01*
X014952Y003265D01*
X014552Y003065D02*
X014401Y003078D01*
X014552Y003065D02*
X014852Y002765D01*
X014952Y002765D01*
X016252Y003165D02*
X016252Y003465D01*
X015852Y003865D01*
X016252Y003865D02*
X016252Y004165D01*
X016352Y004265D01*
X015852Y004765D01*
X015852Y004865D01*
X015352Y004865D01*
X015752Y005265D02*
X016452Y004565D01*
X016552Y004565D01*
X016704Y004593D01*
X016852Y004565D01*
X016952Y004565D01*
X017152Y004765D01*
X017152Y004865D01*
X017552Y004865D01*
X017717Y004965D01*
X018252Y004865D02*
X018387Y004965D01*
X018252Y004865D02*
X018252Y004465D01*
X017452Y004465D01*
X017352Y004365D01*
X016852Y004365D01*
X016704Y004337D01*
X016552Y004365D01*
X016452Y004365D01*
X016352Y004265D01*
X016704Y004081D02*
X016852Y004065D01*
X017552Y004065D01*
X018052Y003800D02*
X018152Y003965D01*
X018252Y004065D01*
X018252Y004165D01*
X021952Y004165D01*
X021952Y004765D01*
X022952Y005765D01*
X023052Y005965D01*
X022952Y006165D01*
X022952Y008065D01*
X021052Y009965D01*
X020052Y010965D02*
X019852Y011165D01*
X019852Y011465D01*
X014152Y011465D01*
X014052Y011365D01*
X014052Y010565D01*
X015352Y010565D01*
X015752Y010165D01*
X015887Y009965D01*
X015752Y009765D01*
X015752Y009165D01*
X014452Y009165D01*
X014371Y009127D01*
X014371Y008871D02*
X014252Y008865D01*
X014052Y008865D01*
X014052Y009365D01*
X013887Y009465D01*
X013352Y009365D02*
X013352Y009265D01*
X013952Y008665D01*
X013952Y008365D01*
X014252Y008365D01*
X014371Y008359D01*
X014452Y008365D01*
X015052Y008365D01*
X014371Y008103D02*
X014252Y008165D01*
X013652Y008165D01*
X013652Y008265D01*
X013552Y008465D01*
X014371Y008871D02*
X014452Y008865D01*
X015752Y008865D01*
X015752Y005665D01*
X015752Y005265D01*
X016452Y004965D02*
X016552Y004865D01*
X016704Y004849D01*
X016452Y004965D02*
X016452Y005865D01*
X016152Y006165D01*
X016733Y006804D02*
X016852Y006765D01*
X016852Y005265D01*
X017717Y005965D02*
X017552Y006165D01*
X017552Y007265D01*
X016852Y007265D01*
X016733Y007316D01*
X016733Y007572D02*
X016652Y007565D01*
X016152Y007565D01*
X016733Y007572D02*
X016852Y007565D01*
X017652Y007565D01*
X017652Y007465D01*
X017852Y007265D01*
X018052Y007131D01*
X018052Y007800D02*
X017852Y007865D01*
X016852Y007865D01*
X016733Y007828D01*
X016733Y008083D02*
X016852Y008065D01*
X017652Y008065D01*
X017652Y008365D01*
X018552Y009265D01*
X018552Y010065D01*
X018152Y010465D01*
X015752Y010465D01*
X015452Y010765D01*
X014552Y010765D01*
X014387Y010965D01*
X013717Y010965D02*
X013152Y010965D01*
X012752Y011465D02*
X012752Y010465D01*
X013352Y009865D01*
X013352Y009565D01*
X013217Y009465D01*
X013352Y009365D01*
X013352Y009865D02*
X015052Y009865D01*
X015217Y009965D01*
X016252Y009265D02*
X016252Y008365D01*
X016652Y008365D01*
X016733Y008339D01*
X016852Y008565D02*
X016733Y008595D01*
X016852Y008565D02*
X017252Y008565D01*
X017252Y008465D01*
X016852Y008865D02*
X016733Y008851D01*
X016852Y008865D02*
X017852Y008865D01*
X017852Y009765D01*
X018052Y009965D01*
X017052Y009965D02*
X016852Y009765D01*
X016852Y009165D01*
X016733Y009107D01*
X014371Y007847D02*
X014252Y007865D01*
X013652Y007865D01*
X013652Y007665D01*
X013552Y007465D01*
X014371Y007335D02*
X014452Y007365D01*
X014952Y007365D01*
X014952Y006465D01*
X014452Y006765D02*
X014371Y006824D01*
X014452Y006765D02*
X014452Y005265D01*
X013952Y004165D02*
X013952Y003965D01*
X013852Y003965D01*
X013652Y003765D01*
X013552Y003631D01*
X013052Y004065D02*
X012652Y004065D01*
X012552Y004131D01*
X010252Y004365D02*
X010194Y004349D01*
X010252Y004365D02*
X010252Y004765D01*
X010217Y004965D01*
X010352Y005165D01*
X010352Y005965D01*
X008552Y007465D02*
X008152Y007265D01*
X007852Y006965D01*
X007852Y004365D01*
X007910Y004349D02*
X007952Y004365D01*
X007952Y004165D01*
X007910Y004093D01*
X007752Y004065D01*
X007252Y004065D01*
X007252Y002765D01*
X007001Y002465D01*
X002552Y002465D01*
X006552Y004465D02*
X006552Y005965D01*
X008352Y007665D02*
X008552Y007465D01*
X008352Y007665D02*
X008352Y011465D01*
X008652Y011765D01*
X009052Y011965D01*
X012052Y011965D02*
X012452Y011765D01*
X012752Y011465D01*
X018387Y005965D02*
X022052Y005965D01*
X021952Y004165D02*
X021952Y003965D01*
X022052Y003465D01*
X018252Y004165D02*
X018252Y004465D01*
X016704Y003830D02*
X016552Y003865D01*
X016252Y003865D01*
X016704Y003578D02*
X016852Y003565D01*
X017252Y003565D01*
X017552Y003165D02*
X017952Y003165D01*
X018052Y003131D01*
X016704Y003074D02*
X016552Y003065D01*
X016352Y003065D01*
X016252Y003165D01*
X008103Y002465D02*
X007952Y002765D01*
X007952Y003165D01*
X007852Y003165D01*
X007952Y003165D02*
X007952Y003565D01*
X007910Y003581D01*
X007952Y003565D02*
X007952Y003765D01*
X007910Y003837D01*
D26*
X007852Y003165D03*
X011452Y005565D03*
X013052Y004565D03*
X013052Y004065D03*
X014952Y004065D03*
X015852Y003865D03*
X014952Y003265D03*
X014952Y002765D03*
X017252Y003565D03*
X017552Y003165D03*
X017552Y004065D03*
X016852Y005265D03*
X015752Y005665D03*
X016152Y006165D03*
X014952Y006465D03*
X014452Y005265D03*
X016152Y007565D03*
X014952Y007965D03*
X016252Y009265D03*
X017252Y008465D03*
X013152Y010965D03*
M02*
