G75*
G70*
%OFA0B0*%
%FSLAX24Y24*%
%IPPOS*%
%LPD*%
%AMOC8*
5,1,8,0,0,1.08239X$1,22.5*
%
%ADD10C,0.0060*%
%ADD11O,0.1040X0.0520*%
%ADD12C,0.0520*%
%ADD13C,0.0660*%
%ADD14OC8,0.0520*%
%ADD15O,0.1120X0.0560*%
%ADD16O,0.0560X0.1120*%
%ADD17OC8,0.0600*%
%ADD18C,0.0080*%
%ADD19C,0.0400*%
%ADD20C,0.0320*%
D10*
X004400Y006995D02*
X004400Y007422D01*
X004400Y007209D02*
X004614Y007422D01*
X004721Y007422D01*
X004937Y007316D02*
X005044Y007422D01*
X005258Y007422D01*
X005364Y007316D01*
X005364Y007209D01*
X004937Y007209D01*
X004937Y007102D02*
X004937Y007316D01*
X004937Y007102D02*
X005044Y006995D01*
X005258Y006995D01*
X005582Y007422D02*
X005795Y006995D01*
X006009Y007422D01*
X006226Y007529D02*
X006333Y007636D01*
X006547Y007636D01*
X006654Y007529D01*
X006654Y007422D01*
X006547Y007316D01*
X006654Y007209D01*
X006654Y007102D01*
X006547Y006995D01*
X006333Y006995D01*
X006226Y007102D01*
X006440Y007316D02*
X006547Y007316D01*
X013900Y008495D02*
X014327Y008495D01*
X013900Y008495D01*
X014327Y008495D01*
X014114Y008495D02*
X014114Y009136D01*
X013900Y008922D01*
X014114Y009136D01*
X014114Y008495D01*
X014114Y009136D01*
X013900Y008922D01*
X014545Y008816D02*
X014972Y008816D01*
X014545Y008816D01*
X014972Y008816D01*
X015189Y009136D02*
X015189Y008495D01*
X015616Y008495D01*
X015189Y008495D01*
X015189Y009136D01*
X015189Y008495D01*
X015616Y008495D01*
X015834Y008602D02*
X015941Y008495D01*
X016154Y008495D01*
X016261Y008602D01*
X016261Y008816D01*
X016154Y008922D01*
X015941Y008922D01*
X015834Y008816D01*
X015834Y008602D01*
X015941Y008495D01*
X016154Y008495D01*
X016261Y008602D01*
X016261Y008816D01*
X016154Y008922D01*
X015941Y008922D01*
X015834Y008816D01*
X015834Y008602D01*
X015941Y008495D01*
X016154Y008495D01*
X016261Y008602D01*
X016261Y008816D01*
X016154Y008922D01*
X015941Y008922D01*
X015834Y008816D01*
X015834Y008602D01*
X016478Y008602D02*
X016478Y008816D01*
X016585Y008922D01*
X016905Y008922D01*
X016585Y008922D01*
X016478Y008816D01*
X016478Y008602D01*
X016585Y008495D01*
X016905Y008495D01*
X016585Y008495D01*
X016478Y008602D01*
X016585Y008495D01*
X016905Y008495D01*
X017123Y008495D02*
X017123Y009136D01*
X017123Y008495D01*
X017123Y009136D01*
X016905Y008922D02*
X016585Y008922D01*
X016478Y008816D01*
X016478Y008602D01*
X017123Y008709D02*
X017443Y008922D01*
X017123Y008709D01*
X017443Y008495D01*
X017123Y008709D01*
X017443Y008922D01*
X017123Y008709D02*
X017443Y008495D01*
X018900Y007136D02*
X018900Y006495D01*
X019221Y006495D01*
X019327Y006602D01*
X019327Y006816D01*
X019221Y006922D01*
X018900Y006922D01*
X019545Y006816D02*
X019545Y006602D01*
X019652Y006495D01*
X019972Y006495D01*
X020189Y006495D02*
X020403Y006495D01*
X020296Y006495D02*
X020296Y007136D01*
X020189Y007136D01*
X019972Y006922D02*
X019652Y006922D01*
X019545Y006816D01*
X021264Y007029D02*
X021370Y007136D01*
X021584Y007136D01*
X021691Y007029D01*
X021691Y006922D01*
X021264Y006495D01*
X021691Y006495D01*
X021908Y006602D02*
X022335Y007029D01*
X022335Y006602D01*
X022228Y006495D01*
X022015Y006495D01*
X021908Y006602D01*
X021908Y007029D01*
X022015Y007136D01*
X022228Y007136D01*
X022335Y007029D01*
X022553Y007029D02*
X022659Y007136D01*
X022873Y007136D01*
X022980Y007029D01*
X022553Y006602D01*
X022659Y006495D01*
X022873Y006495D01*
X022980Y006602D01*
X022980Y007029D01*
X023197Y007136D02*
X023197Y006816D01*
X023411Y006922D01*
X023517Y006922D01*
X023624Y006816D01*
X023624Y006602D01*
X023517Y006495D01*
X023304Y006495D01*
X023197Y006602D01*
X022553Y006602D02*
X022553Y007029D01*
X023197Y007136D02*
X023624Y007136D01*
D11*
X016870Y009965D03*
X016870Y010965D03*
X016870Y011965D03*
X013870Y011965D03*
X013870Y010965D03*
X013870Y009965D03*
D12*
X012370Y008465D03*
X012370Y007465D03*
D13*
X019370Y007965D03*
X019370Y005965D03*
X019370Y004465D03*
X023370Y004465D03*
X023370Y005965D03*
X023370Y007965D03*
D14*
X003870Y005965D03*
X002870Y005965D03*
D15*
X017370Y006465D03*
X017370Y007465D03*
X023370Y010465D03*
X023370Y011465D03*
X023370Y003465D03*
X023370Y002465D03*
D16*
X004870Y003465D03*
X003870Y003465D03*
X002870Y003465D03*
D17*
X002870Y009965D03*
X003870Y009965D03*
X004870Y009965D03*
X005870Y009965D03*
X006870Y009965D03*
X007870Y009965D03*
X008870Y009965D03*
X008870Y010965D03*
X007870Y010965D03*
X006870Y010965D03*
X005870Y010965D03*
X004870Y010965D03*
X003870Y010965D03*
X002870Y010965D03*
D18*
X003870Y009965D02*
X005870Y007965D01*
X010970Y007965D01*
X010470Y006865D02*
X009770Y007565D01*
X010470Y006865D02*
X016570Y006865D01*
X016870Y006565D01*
X017370Y006465D01*
X018070Y006265D02*
X018070Y007365D01*
X017870Y007365D01*
X017370Y007465D01*
X019070Y008165D02*
X019170Y008165D01*
X019370Y007965D01*
X018070Y006265D02*
X016970Y005165D01*
X013470Y005165D01*
X012870Y004565D01*
X012870Y004065D02*
X010970Y004065D01*
X010070Y003865D02*
X011470Y005265D01*
X010170Y005665D02*
X014370Y005665D01*
X014470Y005565D01*
X010970Y006465D02*
X010670Y006165D01*
X009770Y006165D01*
X009070Y005265D02*
X009070Y003565D01*
X008670Y003565D01*
X008370Y003165D02*
X010870Y003165D01*
X010970Y003265D01*
X010970Y002765D02*
X005370Y002765D01*
X005070Y003065D01*
X004870Y003465D01*
X003370Y004165D02*
X003070Y003865D01*
X002870Y003465D01*
X003370Y004165D02*
X008270Y004165D01*
X008370Y004065D01*
X008670Y008465D02*
X008070Y009065D01*
X006170Y009065D01*
X005370Y009865D01*
X005370Y010465D01*
X006370Y010465D01*
X006870Y009965D01*
X006570Y009265D02*
X005870Y009965D01*
X006570Y009265D02*
X009670Y009265D01*
X012770Y010965D02*
X013870Y010965D01*
X016870Y009965D02*
X017370Y009865D01*
X019370Y004465D02*
X018070Y003165D01*
D19*
X018070Y003165D03*
X014470Y005565D03*
X012870Y004565D03*
X012870Y004065D03*
X010970Y004065D03*
X010070Y003865D03*
X010970Y003265D03*
X010970Y002765D03*
X008670Y003565D03*
X008370Y003165D03*
X008370Y004065D03*
X009070Y005265D03*
X010170Y005665D03*
X009770Y006165D03*
X010970Y006465D03*
X011470Y005265D03*
X009770Y007565D03*
X010970Y007965D03*
X009670Y009265D03*
X008670Y008465D03*
X012770Y010965D03*
D20*
X022550Y002277D02*
X002745Y002277D01*
X002745Y002665D01*
X003086Y002665D01*
X003356Y002936D01*
X003647Y002645D01*
X003870Y002645D01*
X003870Y003465D01*
X003871Y003465D01*
X003871Y002645D01*
X004094Y002645D01*
X004385Y002936D01*
X004655Y002665D01*
X005074Y002665D01*
X005254Y002485D01*
X005486Y002485D01*
X010628Y002485D01*
X010721Y002392D01*
X010883Y002325D01*
X011058Y002325D01*
X011220Y002392D01*
X011343Y002516D01*
X011410Y002678D01*
X011410Y002853D01*
X011343Y003015D01*
X011343Y003015D01*
X011343Y003016D01*
X011410Y003178D01*
X011410Y003353D01*
X011343Y003515D01*
X011220Y003638D01*
X011154Y003665D01*
X011220Y003692D01*
X011313Y003785D01*
X012528Y003785D01*
X012621Y003692D01*
X012783Y003625D01*
X012958Y003625D01*
X013120Y003692D01*
X013243Y003816D01*
X013310Y003978D01*
X013310Y004153D01*
X013243Y004315D01*
X013120Y004438D01*
X012958Y004505D01*
X012783Y004505D01*
X012621Y004438D01*
X012528Y004345D01*
X011313Y004345D01*
X011220Y004438D01*
X011092Y004491D01*
X011426Y004825D01*
X011558Y004825D01*
X011720Y004892D01*
X011843Y005016D01*
X011910Y005178D01*
X011910Y005353D01*
X011897Y005385D01*
X014069Y005385D01*
X014097Y005316D01*
X014221Y005192D01*
X014383Y005125D01*
X014558Y005125D01*
X014720Y005192D01*
X014843Y005316D01*
X014910Y005478D01*
X014910Y005653D01*
X014843Y005815D01*
X014720Y005938D01*
X014558Y006005D01*
X014383Y006005D01*
X014238Y005945D01*
X010846Y005945D01*
X010926Y006025D01*
X011058Y006025D01*
X011220Y006092D01*
X011343Y006216D01*
X011410Y006378D01*
X011410Y006553D01*
X011397Y006585D01*
X016454Y006585D01*
X016570Y006469D01*
X016570Y006250D01*
X016875Y005945D01*
X017866Y005945D01*
X018170Y006250D01*
X018170Y006681D01*
X017900Y006951D01*
X018190Y007242D01*
X018190Y007465D01*
X017371Y007465D01*
X017371Y007466D01*
X017371Y008005D01*
X017874Y008005D01*
X018190Y007689D01*
X018190Y007466D01*
X017371Y007466D01*
X017370Y007466D01*
X017370Y008005D01*
X016867Y008005D01*
X016550Y007689D01*
X016550Y007466D01*
X017370Y007466D01*
X017370Y007465D01*
X016550Y007465D01*
X016550Y007242D01*
X016647Y007145D01*
X016454Y007145D01*
X012757Y007145D01*
X012794Y007182D01*
X012870Y007366D01*
X012870Y007565D01*
X012794Y007749D01*
X012654Y007889D01*
X012470Y007965D01*
X012271Y007965D01*
X012087Y007889D01*
X011946Y007749D01*
X011870Y007565D01*
X011870Y007366D01*
X011946Y007182D01*
X011983Y007145D01*
X010586Y007145D01*
X010210Y007521D01*
X010210Y007653D01*
X010197Y007685D01*
X010628Y007685D01*
X010721Y007592D01*
X010883Y007525D01*
X011058Y007525D01*
X011220Y007592D01*
X011343Y007716D01*
X011410Y007878D01*
X011410Y008053D01*
X011343Y008215D01*
X011220Y008338D01*
X011058Y008405D01*
X010883Y008405D01*
X010721Y008338D01*
X010628Y008245D01*
X009055Y008245D01*
X009110Y008378D01*
X009110Y008553D01*
X009043Y008715D01*
X008920Y008838D01*
X008758Y008905D01*
X008626Y008905D01*
X008546Y008985D01*
X009328Y008985D01*
X009421Y008892D01*
X009583Y008825D01*
X009758Y008825D01*
X009920Y008892D01*
X010043Y009016D01*
X010110Y009178D01*
X010110Y009353D01*
X010043Y009515D01*
X009920Y009638D01*
X009758Y009705D01*
X009583Y009705D01*
X009421Y009638D01*
X009328Y009545D01*
X009214Y009545D01*
X009410Y009742D01*
X009410Y010189D01*
X009134Y010465D01*
X009410Y010742D01*
X009410Y011189D01*
X009094Y011505D01*
X008647Y011505D01*
X008370Y011229D01*
X008094Y011505D01*
X007647Y011505D01*
X007370Y011229D01*
X007094Y011505D01*
X006647Y011505D01*
X006370Y011229D01*
X006094Y011505D01*
X005647Y011505D01*
X005370Y011229D01*
X005094Y011505D01*
X004647Y011505D01*
X004370Y011229D01*
X004094Y011505D01*
X003647Y011505D01*
X003370Y011229D01*
X003094Y011505D01*
X002745Y011505D01*
X002745Y012153D01*
X013090Y012153D01*
X013090Y011966D01*
X013870Y011966D01*
X013870Y011965D01*
X013090Y011965D01*
X013090Y011750D01*
X013389Y011451D01*
X013183Y011245D01*
X013113Y011245D01*
X013020Y011338D01*
X012858Y011405D01*
X012683Y011405D01*
X012521Y011338D01*
X012397Y011215D01*
X012330Y011053D01*
X012330Y010878D01*
X012397Y010716D01*
X012521Y010592D01*
X012683Y010525D01*
X012858Y010525D01*
X013020Y010592D01*
X013113Y010685D01*
X013183Y010685D01*
X013403Y010465D01*
X014337Y010465D01*
X014630Y010172D01*
X014630Y009758D01*
X014337Y009465D01*
X013403Y009465D01*
X013110Y009758D01*
X013110Y010172D01*
X013403Y010465D01*
X014337Y010465D01*
X014630Y010758D01*
X014630Y011172D01*
X014352Y011451D01*
X014650Y011750D01*
X014650Y011965D01*
X013871Y011965D01*
X013871Y011966D01*
X014650Y011966D01*
X014650Y012153D01*
X016090Y012153D01*
X016090Y011966D01*
X016870Y011966D01*
X016870Y011965D01*
X016090Y011965D01*
X016090Y011750D01*
X016389Y011451D01*
X016110Y011172D01*
X016110Y010758D01*
X016403Y010465D01*
X017337Y010465D01*
X017630Y010172D01*
X017630Y010171D01*
X019266Y008535D01*
X019484Y008535D01*
X019693Y008449D01*
X019854Y008288D01*
X019940Y008079D01*
X019940Y007852D01*
X019854Y007642D01*
X019693Y007482D01*
X019484Y007395D01*
X019257Y007395D01*
X019047Y007482D01*
X018887Y007642D01*
X018800Y007852D01*
X018800Y007870D01*
X017713Y008957D01*
X017713Y008811D01*
X017615Y008713D01*
X017610Y008709D01*
X017615Y008705D01*
X017713Y008607D01*
X017713Y008384D01*
X017555Y008225D01*
X017361Y008225D01*
X017286Y008276D01*
X017235Y008225D01*
X017011Y008225D01*
X016473Y008225D01*
X016370Y008329D01*
X016356Y008315D01*
X016266Y008225D01*
X016042Y008225D01*
X015829Y008225D01*
X015779Y008276D01*
X015728Y008225D01*
X015078Y008225D01*
X014919Y008384D01*
X014919Y008546D01*
X014597Y008546D01*
X014597Y008384D01*
X014439Y008225D01*
X013789Y008225D01*
X013630Y008384D01*
X013630Y008607D01*
X013732Y008709D01*
X013630Y008811D01*
X013630Y009034D01*
X013844Y009248D01*
X014002Y009406D01*
X014226Y009406D01*
X014384Y009248D01*
X014384Y009036D01*
X014433Y009086D01*
X014919Y009086D01*
X014919Y009248D01*
X015078Y009406D01*
X015301Y009406D01*
X015459Y009248D01*
X015459Y008765D01*
X015564Y008765D01*
X015564Y008927D01*
X015657Y009020D01*
X015671Y009034D01*
X015671Y009034D01*
X015829Y009192D01*
X016266Y009192D01*
X016370Y009089D01*
X016390Y009109D01*
X016394Y009113D01*
X016473Y009192D01*
X016697Y009192D01*
X016853Y009192D01*
X016853Y009248D01*
X017011Y009406D01*
X017235Y009406D01*
X017393Y009248D01*
X017393Y009192D01*
X017478Y009192D01*
X017205Y009465D01*
X016403Y009465D01*
X016110Y009758D01*
X016110Y010172D01*
X016403Y010465D01*
X017337Y010465D01*
X017630Y010758D01*
X017630Y011172D01*
X017352Y011451D01*
X017650Y011750D01*
X017650Y011965D01*
X016871Y011965D01*
X016871Y011966D01*
X017650Y011966D01*
X017650Y012153D01*
X023995Y012153D01*
X023995Y011856D01*
X023866Y011985D01*
X022875Y011985D01*
X022570Y011681D01*
X022570Y011250D01*
X022855Y010965D01*
X022570Y010681D01*
X022570Y010250D01*
X022875Y009945D01*
X023866Y009945D01*
X023995Y010075D01*
X023995Y003856D01*
X023866Y003985D01*
X023696Y003985D01*
X023854Y004142D01*
X023940Y004352D01*
X023940Y004579D01*
X023854Y004788D01*
X023693Y004949D01*
X023484Y005035D01*
X023257Y005035D01*
X023047Y004949D01*
X022887Y004788D01*
X022800Y004579D01*
X022800Y004352D01*
X022887Y004142D01*
X023044Y003985D01*
X022875Y003985D01*
X022570Y003681D01*
X022570Y003250D01*
X022841Y002979D01*
X022550Y002689D01*
X022550Y002466D01*
X023370Y002466D01*
X023370Y002465D01*
X022550Y002465D01*
X022550Y002277D01*
X022550Y002284D02*
X002745Y002284D01*
X002745Y002602D02*
X005137Y002602D01*
X004399Y002921D02*
X004370Y002921D01*
X003871Y002921D02*
X003870Y002921D01*
X003371Y002921D02*
X003341Y002921D01*
X003870Y003240D02*
X003871Y003240D01*
X003074Y004265D02*
X003254Y004445D01*
X003486Y004445D01*
X008138Y004445D01*
X008283Y004505D01*
X008458Y004505D01*
X008620Y004438D01*
X008743Y004315D01*
X008790Y004201D01*
X008790Y004923D01*
X008697Y005016D01*
X008630Y005178D01*
X008630Y005353D01*
X008697Y005515D01*
X008821Y005638D01*
X008983Y005705D01*
X009158Y005705D01*
X009320Y005638D01*
X009443Y005515D01*
X009510Y005353D01*
X009510Y005178D01*
X009443Y005016D01*
X009350Y004923D01*
X009350Y003681D01*
X009350Y003449D01*
X009346Y003445D01*
X009935Y003445D01*
X009821Y003492D01*
X009697Y003616D01*
X009630Y003778D01*
X009630Y003953D01*
X009697Y004115D01*
X009821Y004238D01*
X009983Y004305D01*
X010114Y004305D01*
X011030Y005221D01*
X011030Y005353D01*
X011044Y005385D01*
X010513Y005385D01*
X010420Y005292D01*
X010258Y005225D01*
X010083Y005225D01*
X009921Y005292D01*
X009797Y005416D01*
X009730Y005578D01*
X009730Y005725D01*
X009683Y005725D01*
X009521Y005792D01*
X009397Y005916D01*
X009330Y006078D01*
X009330Y006253D01*
X009397Y006415D01*
X009521Y006538D01*
X009683Y006605D01*
X009858Y006605D01*
X010020Y006538D01*
X010113Y006445D01*
X010530Y006445D01*
X010530Y006553D01*
X010544Y006585D01*
X010354Y006585D01*
X010190Y006749D01*
X009814Y007125D01*
X009683Y007125D01*
X009521Y007192D01*
X009397Y007316D01*
X009330Y007478D01*
X009330Y007653D01*
X009344Y007685D01*
X006879Y007685D01*
X006883Y007681D01*
X006924Y007641D01*
X006924Y007534D01*
X006924Y007321D01*
X006924Y007214D01*
X006924Y006990D01*
X006844Y006911D01*
X006840Y006907D01*
X006765Y006832D01*
X006751Y006818D01*
X006659Y006725D01*
X006445Y006725D01*
X006221Y006725D01*
X006064Y006882D01*
X006017Y006835D01*
X005907Y006725D01*
X005684Y006725D01*
X005603Y006806D01*
X005574Y006835D01*
X005527Y006882D01*
X005370Y006725D01*
X005156Y006725D01*
X004932Y006725D01*
X004826Y006832D01*
X004670Y006987D01*
X004670Y006884D01*
X004512Y006725D01*
X004289Y006725D01*
X004130Y006884D01*
X004130Y007097D01*
X004130Y007321D01*
X004130Y007534D01*
X004289Y007692D01*
X004502Y007692D01*
X004832Y007692D01*
X004882Y007642D01*
X004932Y007692D01*
X005146Y007692D01*
X005370Y007692D01*
X005420Y007642D01*
X005470Y007692D01*
X005694Y007692D01*
X005795Y007591D01*
X005890Y007685D01*
X005754Y007685D01*
X004014Y009425D01*
X003647Y009425D01*
X003370Y009702D01*
X003094Y009425D01*
X002745Y009425D01*
X002745Y006485D01*
X002870Y006485D01*
X002870Y005966D01*
X002871Y005966D01*
X002871Y006485D01*
X003086Y006485D01*
X003385Y006187D01*
X003663Y006465D01*
X004077Y006465D01*
X004370Y006172D01*
X004370Y005758D01*
X004077Y005465D01*
X003663Y005465D01*
X003385Y005744D01*
X003086Y005445D01*
X002871Y005445D01*
X002871Y005965D01*
X002870Y005965D01*
X002870Y005445D01*
X002745Y005445D01*
X002745Y004265D01*
X003074Y004265D01*
X002745Y004514D02*
X008790Y004514D01*
X008790Y004832D02*
X002745Y004832D01*
X002745Y005151D02*
X008642Y005151D01*
X008679Y005469D02*
X004081Y005469D01*
X003659Y005469D02*
X003110Y005469D01*
X002871Y005469D02*
X002870Y005469D01*
X002871Y005788D02*
X002870Y005788D01*
X002871Y006106D02*
X002870Y006106D01*
X002871Y006425D02*
X002870Y006425D01*
X003146Y006425D02*
X003623Y006425D01*
X004118Y006425D02*
X009408Y006425D01*
X009330Y006106D02*
X004370Y006106D01*
X004370Y005788D02*
X009532Y005788D01*
X009462Y005469D02*
X009775Y005469D01*
X009499Y005151D02*
X010960Y005151D01*
X010641Y004832D02*
X009350Y004832D01*
X009350Y004514D02*
X010323Y004514D01*
X009778Y004195D02*
X009350Y004195D01*
X009350Y003877D02*
X009630Y003877D01*
X009755Y003558D02*
X009350Y003558D01*
X011300Y003558D02*
X017869Y003558D01*
X017821Y003538D02*
X017983Y003605D01*
X018114Y003605D01*
X018818Y004309D01*
X018800Y004352D01*
X018800Y004579D01*
X018887Y004788D01*
X019047Y004949D01*
X019257Y005035D01*
X019484Y005035D01*
X019693Y004949D01*
X019854Y004788D01*
X019940Y004579D01*
X019940Y004352D01*
X019854Y004142D01*
X019693Y003982D01*
X019484Y003895D01*
X019257Y003895D01*
X019214Y003913D01*
X018510Y003209D01*
X018510Y003078D01*
X018443Y002916D01*
X018320Y002792D01*
X018158Y002725D01*
X017983Y002725D01*
X017821Y002792D01*
X017697Y002916D01*
X017630Y003078D01*
X017630Y003253D01*
X017697Y003415D01*
X017821Y003538D01*
X017630Y003240D02*
X011410Y003240D01*
X011382Y002921D02*
X017695Y002921D01*
X018445Y002921D02*
X022782Y002921D01*
X022581Y003240D02*
X018541Y003240D01*
X018859Y003558D02*
X022570Y003558D01*
X022766Y003877D02*
X019178Y003877D01*
X018704Y004195D02*
X013293Y004195D01*
X013268Y003877D02*
X018386Y003877D01*
X018800Y004514D02*
X011115Y004514D01*
X011575Y004832D02*
X018931Y004832D01*
X019810Y004832D02*
X022931Y004832D01*
X022800Y004514D02*
X019940Y004514D01*
X019875Y004195D02*
X022865Y004195D01*
X023875Y004195D02*
X023995Y004195D01*
X023995Y004514D02*
X023940Y004514D01*
X023995Y004832D02*
X023810Y004832D01*
X023995Y005151D02*
X014619Y005151D01*
X014321Y005151D02*
X011899Y005151D01*
X011234Y006106D02*
X016714Y006106D01*
X016570Y006425D02*
X011410Y006425D01*
X010196Y006744D02*
X006677Y006744D01*
X006765Y006832D02*
X006765Y006832D01*
X006924Y007062D02*
X009878Y007062D01*
X010351Y007381D02*
X011870Y007381D01*
X011926Y007699D02*
X011326Y007699D01*
X011410Y008018D02*
X012145Y008018D01*
X012087Y008041D02*
X011946Y008182D01*
X011870Y008366D01*
X011870Y008565D01*
X011946Y008749D01*
X012087Y008889D01*
X012271Y008965D01*
X012470Y008965D01*
X012654Y008889D01*
X012794Y008749D01*
X012870Y008565D01*
X012870Y008366D01*
X012794Y008182D01*
X012654Y008041D01*
X012470Y007965D01*
X012271Y007965D01*
X012087Y008041D01*
X011883Y008336D02*
X011222Y008336D01*
X010719Y008336D02*
X009093Y008336D01*
X009068Y008655D02*
X011908Y008655D01*
X012833Y008655D02*
X013678Y008655D01*
X013630Y008973D02*
X010001Y008973D01*
X010110Y009292D02*
X013888Y009292D01*
X014340Y009292D02*
X014964Y009292D01*
X015415Y009292D02*
X016897Y009292D01*
X017349Y009292D02*
X017378Y009292D01*
X018191Y009610D02*
X023995Y009610D01*
X023995Y009292D02*
X018509Y009292D01*
X018828Y008973D02*
X023995Y008973D01*
X023995Y008655D02*
X019147Y008655D01*
X019806Y008336D02*
X022935Y008336D01*
X022887Y008288D02*
X023047Y008449D01*
X023257Y008535D01*
X023484Y008535D01*
X023693Y008449D01*
X023854Y008288D01*
X023940Y008079D01*
X023940Y007852D01*
X023854Y007642D01*
X023693Y007482D01*
X023509Y007406D01*
X023736Y007406D01*
X023894Y007248D01*
X023894Y007024D01*
X023846Y006976D01*
X023894Y006927D01*
X023894Y006714D01*
X023894Y006490D01*
X023815Y006411D01*
X023813Y006409D01*
X023773Y006369D01*
X023854Y006288D01*
X023940Y006079D01*
X023940Y005852D01*
X023854Y005642D01*
X023693Y005482D01*
X023484Y005395D01*
X023257Y005395D01*
X023047Y005482D01*
X022887Y005642D01*
X022800Y005852D01*
X022800Y006079D01*
X022861Y006225D01*
X022771Y006225D01*
X022548Y006225D01*
X022444Y006329D01*
X022433Y006318D01*
X022340Y006225D01*
X022127Y006225D01*
X021903Y006225D01*
X021853Y006276D01*
X021802Y006225D01*
X021375Y006225D01*
X021152Y006225D01*
X020994Y006384D01*
X020994Y006607D01*
X021149Y006762D01*
X020994Y006917D01*
X020994Y007141D01*
X021259Y007406D01*
X021482Y007406D01*
X021696Y007406D01*
X021789Y007312D01*
X021799Y007302D01*
X021903Y007406D01*
X022117Y007406D01*
X022340Y007406D01*
X022340Y007406D01*
X022431Y007315D01*
X022444Y007302D01*
X022548Y007406D01*
X022761Y007406D01*
X022985Y007406D01*
X023035Y007355D01*
X023085Y007406D01*
X023232Y007406D01*
X023047Y007482D01*
X022887Y007642D01*
X022800Y007852D01*
X022800Y008079D01*
X022887Y008288D01*
X022800Y008018D02*
X019940Y008018D01*
X019877Y007699D02*
X022864Y007699D01*
X022985Y007406D02*
X022985Y007406D01*
X023010Y007381D02*
X023060Y007381D01*
X022522Y007381D02*
X022365Y007381D01*
X021878Y007381D02*
X021721Y007381D01*
X021233Y007381D02*
X020433Y007381D01*
X020408Y007406D02*
X020566Y007248D01*
X020566Y006714D01*
X020673Y006607D01*
X020673Y006384D01*
X020515Y006225D01*
X020078Y006225D01*
X019880Y006225D01*
X019940Y006079D01*
X019940Y005852D01*
X019854Y005642D01*
X019693Y005482D01*
X019484Y005395D01*
X019257Y005395D01*
X019047Y005482D01*
X018887Y005642D01*
X018800Y005852D01*
X018800Y006079D01*
X018861Y006225D01*
X018789Y006225D01*
X018630Y006384D01*
X018630Y006607D01*
X018630Y007248D01*
X018789Y007406D01*
X019012Y007406D01*
X019170Y007248D01*
X019170Y007192D01*
X019332Y007192D01*
X019436Y007089D01*
X019459Y007111D01*
X019461Y007113D01*
X019540Y007192D01*
X019763Y007192D01*
X019919Y007192D01*
X019919Y007248D01*
X020078Y007406D01*
X020184Y007406D01*
X020408Y007406D01*
X020052Y007381D02*
X019037Y007381D01*
X018763Y007381D02*
X018190Y007381D01*
X018180Y007699D02*
X018864Y007699D01*
X018652Y008018D02*
X012596Y008018D01*
X012815Y007699D02*
X016561Y007699D01*
X016550Y007381D02*
X012870Y007381D01*
X012858Y008336D02*
X013678Y008336D01*
X014550Y008336D02*
X014967Y008336D01*
X015459Y008973D02*
X015610Y008973D01*
X016258Y009610D02*
X014483Y009610D01*
X014630Y009929D02*
X016110Y009929D01*
X016185Y010247D02*
X014555Y010247D01*
X014438Y010566D02*
X016303Y010566D01*
X016110Y010885D02*
X014630Y010885D01*
X014600Y011203D02*
X016141Y011203D01*
X016319Y011522D02*
X014422Y011522D01*
X014650Y011840D02*
X016090Y011840D01*
X017422Y011522D02*
X022570Y011522D01*
X022730Y011840D02*
X017650Y011840D01*
X017600Y011203D02*
X022617Y011203D01*
X022774Y010885D02*
X017630Y010885D01*
X017438Y010566D02*
X022570Y010566D01*
X022573Y010247D02*
X017555Y010247D01*
X017872Y009929D02*
X023995Y009929D01*
X023995Y008336D02*
X023806Y008336D01*
X023940Y008018D02*
X023995Y008018D01*
X023995Y007699D02*
X023877Y007699D01*
X023761Y007381D02*
X023995Y007381D01*
X023995Y007062D02*
X023894Y007062D01*
X023894Y006744D02*
X023995Y006744D01*
X023995Y006425D02*
X023829Y006425D01*
X023929Y006106D02*
X023995Y006106D01*
X023995Y005788D02*
X023914Y005788D01*
X023995Y005469D02*
X023662Y005469D01*
X023078Y005469D02*
X019662Y005469D01*
X019914Y005788D02*
X022827Y005788D01*
X022812Y006106D02*
X019929Y006106D01*
X020673Y006425D02*
X020994Y006425D01*
X021130Y006744D02*
X020566Y006744D01*
X020566Y007062D02*
X020994Y007062D01*
X019070Y008165D02*
X017370Y009865D01*
X017666Y008655D02*
X018015Y008655D01*
X018334Y008336D02*
X017666Y008336D01*
X017371Y007699D02*
X017370Y007699D01*
X018011Y007062D02*
X018630Y007062D01*
X018630Y006744D02*
X018108Y006744D01*
X018170Y006425D02*
X018630Y006425D01*
X018812Y006106D02*
X018027Y006106D01*
X018827Y005788D02*
X014854Y005788D01*
X014907Y005469D02*
X019078Y005469D01*
X016266Y008225D02*
X016266Y008225D01*
X013258Y009610D02*
X009948Y009610D01*
X009393Y009610D02*
X009279Y009610D01*
X009410Y009929D02*
X013110Y009929D01*
X013185Y010247D02*
X009352Y010247D01*
X009235Y010566D02*
X012585Y010566D01*
X012956Y010566D02*
X013303Y010566D01*
X012330Y010885D02*
X009410Y010885D01*
X009396Y011203D02*
X012393Y011203D01*
X013319Y011522D02*
X002745Y011522D01*
X002745Y011840D02*
X013090Y011840D01*
X009340Y008973D02*
X008558Y008973D01*
X008085Y008655D02*
X005577Y008655D01*
X005866Y008973D02*
X005258Y008973D01*
X005548Y009292D02*
X004940Y009292D01*
X004871Y009405D02*
X005102Y009405D01*
X005268Y009571D01*
X006054Y008785D01*
X006286Y008785D01*
X007954Y008785D01*
X008230Y008509D01*
X008230Y008378D01*
X008285Y008245D01*
X005986Y008245D01*
X004826Y009405D01*
X004870Y009405D01*
X004870Y009965D01*
X004871Y009965D01*
X004871Y009405D01*
X004871Y009610D02*
X004870Y009610D01*
X004871Y009929D02*
X004870Y009929D01*
X004148Y009292D02*
X002745Y009292D01*
X002745Y008973D02*
X004466Y008973D01*
X004785Y008655D02*
X002745Y008655D01*
X002745Y008336D02*
X005104Y008336D01*
X005422Y008018D02*
X002745Y008018D01*
X002745Y007699D02*
X005741Y007699D01*
X005895Y008336D02*
X008248Y008336D01*
X009371Y007381D02*
X006924Y007381D01*
X006203Y006744D02*
X005925Y006744D01*
X005666Y006744D02*
X005388Y006744D01*
X004914Y006744D02*
X004530Y006744D01*
X004270Y006744D02*
X002745Y006744D01*
X002745Y007062D02*
X004130Y007062D01*
X004130Y007381D02*
X002745Y007381D01*
X003279Y009610D02*
X003462Y009610D01*
X011379Y002602D02*
X022550Y002602D01*
X023974Y003877D02*
X023995Y003877D01*
M02*
